<svg width="56" height="55" viewBox="0 0 56 55" fill="none" xmlns="http://www.w3.org/2000/svg">
<g clip-path="url(#clip0)">
<path d="M44.6059 2.31874C44.4968 1.97694 44.3054 1.70097 43.8999 1.59933C44.2832 2.28874 44.0939 2.94472 43.7761 3.54645C43.4377 4.18686 43.2233 4.35403 42.5467 4.19698C43.3674 2.61888 43.1353 1.20729 41.7955 0.000976562C41.7554 0.151813 41.755 0.299115 41.7911 0.437055C41.8601 0.700518 41.9538 0.957771 42.03 1.2197C42.1863 1.75637 42.1458 2.27518 41.8653 2.76704C41.6157 3.20389 41.2347 3.27018 40.8514 2.94434C40.6605 2.78223 40.4894 2.59118 40.2808 2.45677C39.5312 1.97513 38.8106 1.4633 38.2259 0.786778C38.1557 0.705294 38.0597 0.644921 37.9755 0.575091C37.9391 0.597349 37.9025 0.619511 37.866 0.641769C38.045 1.09237 38.2241 1.54325 38.4097 2.01133C38.2605 1.9778 38.1319 1.94895 38.0038 1.92049C38.0248 2.07916 38.083 2.17812 38.1633 2.25454C38.3966 2.47741 38.6304 2.70123 38.8787 2.90776C39.7677 3.6479 40.3764 4.54938 40.5097 5.70582C40.5626 6.16149 40.5705 6.6268 40.5483 7.08513C40.5296 7.46982 40.5213 7.8888 40.363 8.22715C39.8498 9.32227 39.2712 10.3879 38.7129 11.4624C38.6755 11.5346 38.599 11.5868 38.4684 11.724C38.4684 10.9355 38.5112 10.2493 38.4565 9.57026C38.402 8.89593 38.3057 8.21387 37.9255 7.6176C37.8828 7.7072 37.8775 7.7883 37.8751 7.86941C37.8465 8.83948 37.8616 9.81309 37.7791 10.7789C37.6881 11.8413 37.4124 12.8566 36.5692 13.624C36.0228 14.121 35.4807 14.6226 34.9252 15.109C34.8542 15.1714 34.7136 15.1569 34.6053 15.1783C34.5961 15.0794 34.5661 14.9769 34.5814 14.8813C34.6529 14.4378 34.7668 13.9993 34.8101 13.5535C34.8971 12.6586 34.9486 11.7603 35.0109 10.8635C35.0148 10.805 34.987 10.7446 34.9533 10.5907C34.5898 11.3686 34.3111 12.0741 34.2334 12.833C34.1315 13.8244 33.9315 14.772 33.3228 15.6041C33.2096 15.7584 33.1899 15.9935 33.1704 16.1949C33.1411 16.4977 33.0081 16.695 32.72 16.8181C32.0236 17.1155 31.3159 17.179 30.568 17.0372C30.2212 16.9714 29.9676 16.8517 29.7838 16.5492C29.5274 16.1275 29.2902 15.679 28.956 15.3219C28.5044 14.839 28.1267 14.344 28.0128 13.6846C27.9846 13.5213 27.945 13.3591 27.8981 13.2002C27.6858 12.4814 27.4691 11.7639 27.2536 11.0464C27.212 11.0546 27.1706 11.0624 27.129 11.0706C27.1199 12.3342 27.2759 13.5857 27.5334 14.8991C27.3171 14.7327 27.1684 14.6154 27.0168 14.5015C26.2453 13.9216 25.5953 13.2536 25.3445 12.2932C25.2278 11.8462 25.102 11.4007 24.9933 10.9518C24.8672 10.431 24.7548 9.90689 24.6362 9.38455C24.2326 10.2666 24.5449 11.1657 24.4885 12.0727C23.9691 11.1965 23.4123 10.3332 23.027 9.40175C22.5461 8.23986 22.4167 7.03202 22.946 5.80746C23.2004 5.21893 23.6187 4.78437 24.0179 4.31238C24.229 4.06296 24.3338 3.72699 24.5171 3.37039C24.2917 3.37039 24.1893 3.37039 24.0659 3.37039C24.2127 2.60646 24.4369 1.87378 24.4059 1.09772C24.2846 1.15618 24.2111 1.22754 24.1567 1.31093C23.7349 1.95984 23.3194 2.61267 22.896 3.26044C22.5702 3.7589 22.2487 4.26051 21.9015 4.74464C21.6566 5.08567 21.3868 5.15855 21.0487 5.0081C21.1534 4.81322 21.257 4.62074 21.3602 4.42816C21.3356 4.41134 21.311 4.39424 21.2869 4.37753C21.0984 4.51193 20.9099 4.64682 20.7016 4.79565C20.4071 4.34314 20.3278 3.88088 20.3988 3.40392C20.5012 2.71288 20.6445 2.02767 20.7591 1.33825C20.7901 1.15198 20.7806 0.959395 20.7897 0.769965C20.7512 0.760604 20.7126 0.751242 20.6741 0.741881C20.6071 0.843234 20.5253 0.937901 20.4749 1.04709C20.2102 1.61843 19.9686 2.20076 19.6912 2.7659C19.2297 3.70521 19.3225 4.59533 19.8574 5.4758C19.9669 5.65625 19.9772 5.89201 20.0522 6.09548C20.1847 6.45523 20.3209 6.8146 20.4756 7.16576C20.7173 7.71379 21.0522 8.22352 21.0078 8.86661C20.926 10.0456 21.2435 11.108 22.1146 11.9518C22.9019 12.7145 23.7067 13.4621 24.5408 14.1745C25.4682 14.9669 26.4409 15.7086 27.3861 16.4811C27.6135 16.667 27.8115 16.8876 28.0226 17.0922C27.3198 16.9106 26.69 16.6346 26.034 16.4487C25.3424 16.2531 24.7817 15.9213 24.3844 15.3282C24.3451 15.2694 24.2547 15.2432 24.1885 15.2019C24.1463 15.2791 24.0555 15.3676 24.0706 15.4315C24.1246 15.658 24.1718 15.9035 24.2984 16.0921C24.8484 16.9106 25.4059 17.7263 26.002 18.5125C26.2623 18.8558 26.5763 19.2164 26.9516 19.4019C27.2496 19.5492 27.5762 19.6229 27.7731 19.9105C27.9085 20.1082 28.0143 20.3252 28.1346 20.5326C28.4275 21.0365 28.4715 21.5362 28.1184 22.0339C28.0846 22.0815 28.0581 22.1383 28.0441 22.1945C27.7584 23.3661 27.4787 24.5389 27.187 25.7089C27.1576 25.8266 27.0866 25.9596 26.9926 26.0324C26.5116 26.4065 25.9707 26.6516 25.3473 26.6852C23.9876 26.7588 22.6281 26.8392 21.2673 26.8949C20.9852 26.9066 20.6991 26.8244 20.4149 26.7826C20.2142 26.7529 20.007 26.6676 19.8153 26.6942C19.0327 26.8021 18.255 26.944 17.4751 27.0719C17.2041 27.1163 16.9064 27.1003 16.666 27.2083C16.068 27.4769 15.4572 27.747 14.9235 28.1165C14.2569 28.5782 13.3763 28.7723 12.9611 29.5644C12.9413 29.6025 12.8877 29.6243 12.8493 29.6528C12.0972 30.2031 11.7028 30.9814 11.4846 31.8408C11.2429 32.7926 11.5918 33.7374 11.6057 34.6887C11.6057 34.7 11.6124 34.7112 11.6152 34.7229C11.9025 36.0134 12.2585 37.2937 12.4562 38.5971C12.632 39.7562 12.647 40.9406 12.7053 42.1149C12.7557 43.129 12.7689 44.1451 12.7946 45.1608C12.7982 45.302 12.8085 45.4535 12.7649 45.5842C12.4811 46.4369 12.2608 47.3224 11.8652 48.1237C11.5628 48.7368 11.4243 49.296 11.4787 49.9786C11.5386 50.7363 11.4029 51.5076 11.3722 52.2737C11.3524 52.7672 11.3686 53.2622 11.3686 53.7567C11.2227 54.6423 11.2976 55.0761 12.6012 54.8628C13.9048 54.6493 14.4119 55.5032 14.2305 54.5069C14.0492 53.5107 12.9698 53.0068 12.9698 53.0068C12.9059 52.9195 12.7781 52.8224 12.7896 52.7464C12.8304 52.4802 12.9098 52.2179 12.9928 51.9599C13.249 51.1609 13.5075 50.3623 13.7781 49.5684C13.957 49.0431 14.1352 48.5154 14.3558 48.0062C14.9634 46.6035 15.5915 45.2095 16.215 43.813C16.5523 43.0569 16.815 42.2618 17.4143 41.5766C17.7714 42.0841 17.9702 41.4535 18.2333 41.5123C18.819 41.9041 18.5619 42.51 18.6278 43.0159C18.698 43.5581 18.6885 44.1237 18.3972 44.6427C17.8622 45.5957 17.3785 46.5778 16.815 47.5136C16.5071 48.0253 16.5094 48.4619 16.7717 48.9787C17.2686 49.9586 17.7916 50.936 18.1567 51.9646C18.3495 52.5082 18.7543 52.9 18.9408 53.4284C19.0448 53.6705 18.6119 54.6113 19.2634 54.4715C19.9154 54.3315 21.4376 54.7181 21.4738 54.4715C21.5099 54.2247 21.2203 53.1549 20.4599 52.6568C19.6996 52.1587 19.7138 50.5385 19.7138 50.5385C19.4698 49.4518 19.8206 48.539 20.5289 47.7128C20.9377 47.2362 21.3567 46.7571 21.6864 46.2283C22.0369 45.6662 22.2872 45.0439 22.5825 44.4483C22.6671 44.2779 22.7599 44.1119 22.8437 43.9412C22.9544 43.7151 23.1226 43.5889 23.3889 43.6193C23.4128 43.6219 23.4393 43.6274 23.4607 43.6204C24.0298 43.442 24.5877 43.5826 25.1517 43.6602C25.4333 43.6988 25.7267 43.6532 26.0108 43.6832C26.1239 43.6952 26.2968 43.7881 26.3231 43.8777C26.7834 45.4682 27.3322 47.0377 27.4358 48.712C27.4592 49.0874 27.6826 49.4478 27.785 49.8224C27.8778 50.1623 27.7476 50.5095 27.779 50.8588L27.8691 51.855C27.8691 51.855 27.4727 53.8416 27.7382 53.8888C28.0036 53.9362 28.6799 53.7702 29.0902 53.9596C29.5006 54.1495 30.4541 53.865 30.4541 53.865C30.5628 53.2246 29.4465 52.4147 29.4465 52.4147C29.4359 51.6133 29.3898 50.8097 29.4525 50.0103C29.4795 49.6642 29.6847 49.3302 29.7058 48.9845C29.7288 48.6057 29.6593 48.2147 29.5839 47.8383C29.4383 47.1087 29.2109 46.3922 29.1101 45.658C29.0181 44.9862 29.0554 44.2974 29.0213 43.617C29.0066 43.3262 29.1184 43.1481 29.3634 42.9746C30.0662 42.4761 31.5467 42.4433 32.232 43.1227C32.3328 43.2229 32.5698 43.1906 32.825 43.214C32.8614 43.217 32.89 43.2455 32.8948 43.2809C33.1535 45.239 33.4214 47.2627 33.6917 49.3081C33.6988 49.3607 34.119 50.9309 33.9151 51.1492C33.8039 51.268 33.8679 51.5444 33.8865 51.8254C33.8905 51.8842 33.4233 52.7979 34.0027 53.4736C34.5821 54.1495 36.5377 54.0781 36.5377 54.0781C36.5377 54.0781 36.4654 53.7226 36.2841 52.9401C36.1032 52.1574 35.8195 52.1255 35.8195 52.1255C35.5703 51.7299 35.5976 51.3897 35.904 51.0701C35.8964 51.0116 35.9119 50.9266 35.8793 50.9006C35.5452 50.6347 35.6612 50.2965 35.681 49.9557C35.7064 49.5216 35.681 49.0839 35.6627 48.6485C35.6116 47.4325 35.4656 46.2126 35.5234 45.0016C35.5714 44.0011 35.8785 43.0151 36.029 42.0161C36.1306 41.3395 36.1754 40.6528 36.2155 39.9691C36.2437 39.4823 36.3659 39.0587 36.7116 38.6846C36.9448 38.432 37.1243 38.123 37.2874 37.8182C37.4255 37.5602 37.4814 37.2601 37.6156 36.9994C38.0374 36.1789 38.447 35.3628 38.0933 34.4067C38.0855 34.3852 38.0886 34.3596 38.0862 34.3362C37.995 33.4293 37.9041 32.5223 37.8127 31.6154C37.783 31.3212 37.7171 31.0257 37.7298 30.7334C37.7504 30.2525 37.8715 29.7727 37.8608 29.2941C37.8422 28.4682 37.8508 27.6237 37.6719 26.825C37.4683 25.9189 37.1176 25.0353 36.7454 24.1775C36.3684 23.3083 35.9279 22.4591 35.4374 21.6461C35.1088 21.1016 35.1449 20.5739 35.2635 20.0185C35.2921 19.8851 35.4136 19.7554 35.5228 19.6568C35.9953 19.2311 36.5375 18.8687 36.7343 18.2151C36.787 18.0394 36.8743 17.8578 36.995 17.7206C37.4474 17.2045 37.9272 16.7112 38.3824 16.197C38.5621 15.9939 38.7217 15.7679 38.8531 15.5322C38.9134 15.4242 38.8828 15.2675 38.8935 15.1331C38.7527 15.1506 38.6943 15.1775 38.6669 15.2227C38.3646 15.7204 37.8983 15.9745 37.3522 16.1581C36.6711 16.3868 36.0113 16.6749 35.3402 16.9336C35.2727 16.9597 35.1945 16.9582 35.0251 16.9844C35.2061 16.7556 35.3124 16.5841 35.4545 16.4485C35.9204 16.0023 36.3922 15.561 36.8748 15.1323C37.5363 14.5445 38.2193 13.9794 38.876 13.3866C39.576 12.7552 40.2388 12.0833 40.9495 11.4647C42.0383 10.5169 42.5067 9.34844 42.3117 7.94019C42.1951 7.0964 42.6003 6.46383 43.0912 5.85542C43.2849 5.61574 43.498 5.38571 43.7313 5.18387C43.8607 5.07201 44.0453 4.97925 44.2134 4.9632C44.55 4.93168 44.6007 4.85019 44.4634 4.53916C44.4011 4.39768 44.3821 4.20281 44.4264 4.05665C44.5996 3.48531 44.7988 2.9217 44.6059 2.31874Z" fill="#6FCF97"/>
</g>
<defs>
<clipPath id="clip0">
<rect width="56" height="55" fill="white"/>
</clipPath>
</defs>
</svg>
