<svg width="56" height="55" viewBox="0 0 56 55" fill="none" xmlns="http://www.w3.org/2000/svg">
<g clip-path="url(#clip0)">
<path d="M51.9866 17.2932C51.7603 16.2375 49.6672 14.793 48.5924 14.3488C48.5924 14.3488 48.3097 13.6265 47.6306 13.3489C46.9516 13.0712 46.1031 10.3487 46.1599 13.6823C46.1599 13.6823 44.2931 12.7378 43.3879 12.7378C43.3879 12.7378 42.6525 14.0158 43.3879 15.4045C43.3879 15.4045 42.0867 15.9602 40.0504 16.9043C38.0138 17.8489 33.545 17.6824 29.0196 15.9044C24.494 14.1264 19.5158 14.0153 16.6311 16.4602C16.6311 16.4602 12.5582 17.4047 11.4833 18.6827C10.4084 19.9607 4.29894 21.5718 1.80999 17.1271C-0.678959 12.6823 -0.16986 18.8492 0.79189 20.2384C1.75364 21.6275 5.09106 27.7944 13.9158 22.0163C13.9158 22.0163 14.538 25.6834 17.4232 26.7945C20.3085 27.9055 20.3085 31.4614 20.0821 32.2391C19.8557 33.0168 20.3648 36.1281 20.0821 37.0172C19.7994 37.9061 21.9487 39.4616 22.4578 42.2953C22.4578 42.2953 22.4015 43.7952 23.7591 42.2953C23.7591 42.2953 24.0418 42.9065 24.8903 42.5176C24.8903 42.5176 26.1916 43.1288 26.4175 41.962C26.6438 40.7951 26.6438 40.4063 25.3994 39.5729C24.1551 38.7395 21.1566 35.0171 23.4759 33.0168C25.7954 31.0165 26.248 30.5166 26.248 27.9052C26.248 27.9052 30.5472 28.8497 31.2826 30.6276C31.2826 30.6276 30.9431 33.6279 30.7736 34.1278C30.6041 34.6277 26.7007 34.85 25.6258 37.5168C25.6258 37.5168 25.6823 38.1837 26.1917 38.1279C26.1917 38.1279 26.418 39.1836 26.9835 38.7948C27.5489 38.4061 29.416 37.0168 31.3395 37.0726C33.263 37.128 33.0366 35.517 33.3762 34.9612C33.7156 34.4055 34.2811 32.7945 34.2811 32.5721C34.2811 32.5721 35.8082 34.2389 35.6955 35.1277C35.5823 36.0164 35.0165 35.9058 34.3943 36.0164C33.772 36.1272 32.3576 37.2387 32.584 37.7387C32.584 37.7387 31.3395 39.1832 32.1313 39.1832C32.9231 39.1832 35.1293 38.5163 35.9214 37.7941C36.7132 37.0718 38.5234 37.0718 38.4102 35.4608C38.2971 33.8498 38.0708 32.016 38.0708 32.016C38.0708 32.016 44.463 29.0716 46.556 26.1826C48.649 23.2937 49.4412 22.5156 51.4774 23.016C53.5136 23.5163 53.8531 22.8495 53.8531 22.8495C53.8531 22.8495 56.3987 21.405 55.9462 20.2381C55.9466 20.2376 52.2129 18.3485 51.9866 17.2932Z" fill="#6FCF97"/>
</g>
<defs>
<clipPath id="clip0">
<rect width="56" height="55" fill="white"/>
</clipPath>
</defs>
</svg>
