<svg width="56" height="55" viewBox="0 0 56 55" fill="none" xmlns="http://www.w3.org/2000/svg">
<g clip-path="url(#clip0)">
<path d="M1.74136 36.3847C2.22992 35.8216 2.73945 35.2729 3.19033 34.6815C3.76998 33.9218 4.21533 33.0841 4.56473 32.1933C4.90743 31.3189 5.30762 30.466 5.6678 29.5978C5.82385 29.222 5.94709 28.8324 6.07634 28.446C6.15917 28.1981 6.32834 28.0397 6.612 27.9078C6.612 28.0561 6.61316 28.1752 6.612 28.2942C6.59219 30.1169 6.56441 31.9396 6.55538 33.7624C6.55101 34.6429 6.80651 35.4866 6.99869 36.3376C7.06249 36.6205 7.14843 36.8983 7.22457 37.1781C7.3644 37.694 7.27807 38.1914 7.12746 38.6942C6.90595 39.4343 6.71377 40.1825 6.50896 40.9274C6.37223 41.425 6.21181 41.9181 6.10411 42.422C5.85648 43.5804 5.91397 44.7463 6.07954 45.9093C6.16704 46.5227 6.25745 47.1305 6.0641 47.7449C5.98884 47.9846 5.93495 48.2449 5.94476 48.4929C5.96301 48.9478 6.27367 49.2419 6.7328 49.2891C7.17183 49.3342 7.61203 49.3762 8.05262 49.3961C8.62945 49.4221 9.20871 49.4552 9.78477 49.4311C10.4781 49.4018 11.1684 49.3112 11.8605 49.2575C12.0534 49.2423 12.0855 49.1381 12.0641 48.9879C12.0336 48.7742 11.9953 48.5617 11.9571 48.3344C11.9889 48.3189 12.0233 48.2983 12.0605 48.2847C12.3724 48.1714 12.5051 47.8801 12.3244 47.603C12.1493 47.3345 11.9298 47.0905 11.711 46.8528C11.511 46.6352 11.257 46.4614 11.0783 46.2298C10.8097 45.8807 10.5704 45.5071 10.3485 45.127C10.1555 44.7962 10.1995 44.4235 10.3005 44.0792C10.4653 43.521 10.6175 42.9483 10.8781 42.4319C11.1499 41.8934 11.4962 41.3743 11.8964 40.9198C12.4016 40.3459 12.9963 39.8478 13.5486 39.313C14.1096 38.7705 14.4928 38.1297 14.6714 37.3709C14.7415 37.0729 14.8331 36.7791 14.9333 36.4892C14.9516 36.437 15.0609 36.3799 15.1243 36.3841C15.8514 36.4299 16.5768 36.5062 17.3043 36.5347C17.7769 36.5533 18.2528 36.5062 18.727 36.4891C18.8459 36.4848 18.9655 36.4856 19.0844 36.4813C20.0353 36.4486 20.9898 36.4544 21.9354 36.3684C22.5642 36.3112 23.1522 36.0466 23.7164 35.7551C24.1197 35.5465 24.5321 35.3551 24.9514 35.1508C25.2255 35.4239 25.3733 35.7625 25.4628 36.1295C25.7398 37.2666 25.8238 38.4274 25.8947 39.5893C25.9324 40.2037 25.9973 40.8182 25.9961 41.4326C25.9949 42.1139 25.9212 42.7944 25.9006 43.4763C25.8895 43.8421 25.9585 44.2117 25.9311 44.5751C25.8847 45.1869 25.8052 45.7974 25.7084 46.4041C25.6767 46.6025 25.5515 46.7874 25.4648 46.9765C25.229 47.4886 25.2825 47.9401 25.6391 48.2688C25.7108 48.335 25.8289 48.3918 25.9235 48.3883C26.9398 48.3502 27.9553 48.2922 28.9715 48.254C29.6246 48.2295 30.2787 48.2261 30.9323 48.2229C31.0192 48.2226 31.1293 48.256 31.1891 48.3136C31.4209 48.5346 31.7141 48.535 31.9975 48.5389C32.8068 48.5502 33.6163 48.5432 34.4262 48.5424C34.7638 48.542 35.1029 48.5591 35.4381 48.5323C35.6592 48.5148 35.8758 48.4373 36.0922 48.3791C36.2142 48.3459 36.3284 48.2821 36.4516 48.2583C36.9658 48.1604 36.9726 48.0482 36.8719 47.5295C36.8387 47.3583 36.6733 47.21 36.5637 47.0547C36.4606 46.9088 36.3559 46.7632 36.2415 46.6255C36.2031 46.5792 36.1216 46.569 36.0787 46.5247C35.6963 46.1313 35.2572 45.7802 35.0355 45.2611C34.9804 45.1327 34.9486 44.9899 34.9329 44.851C34.8219 43.8825 34.6808 42.9155 34.6233 41.9438C34.5797 41.2067 34.6502 40.4636 34.6615 39.7231C34.6706 39.104 34.6535 38.4845 34.6732 37.8657C34.6967 37.1326 34.7055 36.3951 34.7946 35.6686C34.9369 34.5114 34.919 33.3544 34.8579 32.1992C34.8064 31.2228 34.6697 30.2507 34.5833 29.2756C34.5771 29.2017 34.651 29.0869 34.7212 29.0457C35.4848 28.5985 36.2526 28.1576 37.024 27.7242C37.888 27.239 38.7578 26.7627 39.7102 26.2354C39.8742 26.421 40.0624 26.6455 40.2629 26.8584C40.4412 27.0472 40.6382 27.2187 40.8177 27.4062C41.0479 27.6464 41.2809 27.8852 41.4893 28.1429C41.6934 28.3951 41.866 28.4889 42.0264 28.3818C42.2119 28.2585 42.265 27.9134 42.1255 27.6982C42.0714 27.6153 42.0089 27.5356 41.9385 27.4659C41.3996 26.9312 41.1508 26.2388 40.8648 25.5664C40.8385 25.5049 40.8103 25.4443 40.7637 25.3399C41.0868 25.1912 41.4091 25.0376 41.7363 24.8956C41.9607 24.7983 42.1888 24.7068 42.4214 24.6313C42.8572 24.4897 43.1877 24.2107 43.4789 23.8783C43.6592 23.6729 43.8938 23.5569 44.1268 23.7105C44.6977 24.0869 45.3573 24.0961 45.9929 24.2125C46.0261 24.2187 46.0618 24.2184 46.0927 24.23C46.2239 24.2798 46.3692 24.3367 46.4506 24.1799C46.495 24.0942 46.4731 23.9752 46.4866 23.8035C46.6086 23.6381 46.8681 23.7023 47.0951 23.6759C47.3464 23.6463 47.6012 23.6206 47.8536 23.6296C48.0349 23.6361 48.2182 23.6892 48.3933 23.7436C49.478 24.0814 50.593 24.1857 51.7072 24.0098C52.4596 23.8911 53.2302 23.7495 53.8772 23.2841C54.3068 22.9752 54.6994 22.642 54.7999 22.093C54.821 21.9805 54.8031 21.861 54.7615 21.7046C53.6482 22.7148 52.3061 22.7051 50.8903 22.6813C51.2567 22.3229 51.8383 22.2148 51.7967 21.5493C51.3106 21.7241 50.8598 21.8941 50.4028 22.0479C49.9043 22.2155 49.3992 22.3526 48.851 22.1133C49.1363 22.014 49.4139 21.8705 49.7079 21.8237C50.7301 21.6619 51.4634 21.1166 52.0379 20.2932C52.4057 19.766 52.6892 19.2119 52.8729 18.6013C53.0661 17.958 53.0611 17.3008 53.0312 16.6423C52.9948 15.8396 52.6536 15.1169 52.3901 14.3741C52.1191 13.6099 51.9694 12.8172 52.0696 12.0152C52.1746 11.1782 52.4578 10.3835 52.9147 9.65817C53.1188 9.33437 53.3014 8.99588 53.5264 8.68734C53.9592 8.09391 54.5423 7.69305 55.2547 7.47636C55.4548 7.4157 55.6505 7.3394 55.8514 7.28179C56.0377 7.22847 56.0136 7.06118 55.9648 6.97868C55.775 6.65612 55.8379 6.3121 55.8309 5.9739C55.8234 5.63808 55.6015 5.44667 55.3392 5.63417C54.9073 5.94348 54.3989 5.98516 53.9318 6.16141C53.0029 6.51201 52.1744 7.03849 51.4699 7.71794C50.7357 8.42572 50.0911 9.2017 49.702 10.1726C49.3775 10.9828 48.9801 11.7704 48.8322 12.632C48.6655 13.606 48.6837 14.5854 48.8834 15.5641C48.9795 16.0354 48.9867 16.5261 49.0042 17.009C49.0086 17.1335 48.9222 17.2791 48.8386 17.3848C48.5917 17.6973 48.3256 17.9946 48.1139 18.2429C47.6948 18.1009 47.3058 17.9549 46.9082 17.8382C46.5068 17.7207 46.1415 17.5537 45.8104 17.2957C45.5469 17.0902 45.2434 16.9357 44.9664 16.7462C44.481 16.4151 44.0088 16.0652 43.5194 15.7408C43.1764 15.5131 42.8226 15.2978 42.458 15.1053C41.8634 14.7909 41.2624 14.4866 40.6526 14.2017C40.0876 13.9382 39.4723 13.9701 38.8752 14.0211C38.0416 14.0924 37.247 14.3278 36.5223 14.7527C35.8774 15.1309 35.2398 15.5216 34.5964 15.9026C34.2438 16.1112 33.8535 16.1703 33.4478 16.1617C33.2208 16.1571 32.9905 16.1357 32.7671 16.163C32.4043 16.2073 32.1398 15.9785 31.8425 15.8614C31.144 15.5862 30.4323 15.401 29.6824 15.3361C29.0844 15.2844 28.4908 15.1867 27.8934 15.1275C26.9219 15.0313 25.956 15.0435 25.0395 15.4298C24.5051 15.6551 23.9915 15.9284 23.4563 16.1505C23.3157 16.2089 23.121 16.1866 22.9622 16.1528C22.3433 16.0209 21.73 15.8645 21.1123 15.7259C20.562 15.6026 20.0057 15.5049 19.4586 15.3698C18.4665 15.1247 17.5346 15.4108 16.607 15.6769C15.9342 15.8699 15.273 16.1103 14.624 16.3715C14.164 16.5567 13.7164 16.7855 13.2929 17.0416C12.6046 17.4575 11.903 17.8662 11.2758 18.3619C10.5986 18.8973 9.97345 19.5044 9.37603 20.1266C8.84358 20.6807 8.36493 21.287 7.89025 21.8917C7.53046 22.3501 7.17989 22.8221 6.88895 23.3233C6.51294 23.9716 6.1718 24.6432 5.87192 25.3285C5.69994 25.7203 5.63663 26.1582 5.52835 26.5764C5.41386 27.0193 5.31995 27.4675 5.18924 27.9053C4.98716 28.5813 4.77167 29.2537 4.54181 29.921C4.35798 30.4554 4.15794 30.9849 3.9408 31.5072C3.75619 31.9523 3.54226 32.3858 3.33221 32.8205C3.04176 33.4222 2.7716 34.0353 2.43832 34.6141C2.16097 35.0954 1.83604 35.5592 1.47198 35.9803C1.28057 36.2009 0.939523 36.2893 0.699759 36.4791C0.338414 36.7656 0.0765087 37.1278 -0.000305176 37.68C0.260823 37.5625 0.476698 37.4828 0.675288 37.3725C1.1118 37.1318 1.42235 36.752 1.74136 36.3847ZM29.645 44.6795C29.7789 44.4152 29.8581 44.1136 29.9061 43.8202C30.0408 43.0011 30.1502 42.178 30.2623 41.3554C30.3562 40.6662 30.4406 39.976 30.5294 39.2861C30.5464 39.2873 30.5635 39.2887 30.5803 39.29C30.6968 39.7644 30.8161 40.2382 30.9295 40.7131C31.1213 41.517 31.1649 42.3256 31.0573 43.1482C30.9951 43.6253 30.9172 44.1261 31.1431 44.5774C31.4139 45.1184 31.3527 45.6585 31.2392 46.2076C31.1719 46.5348 31.0761 46.8562 30.9735 47.2558C30.8364 47.0932 30.7495 46.9967 30.6699 46.8947C30.4144 46.5651 30.1692 46.2278 29.9061 45.904C29.6063 45.5363 29.3946 45.1737 29.645 44.6795Z" fill="#6FCF97"/>
</g>
<defs>
<clipPath id="clip0">
<rect width="56" height="55" fill="white"/>
</clipPath>
</defs>
</svg>
