<svg width="56" height="55" viewBox="0 0 56 55" fill="none" xmlns="http://www.w3.org/2000/svg">
<g clip-path="url(#clip0)">
<path d="M0.711459 12.1109C0.678289 12.0293 0.630421 11.9609 0.579375 11.888C0.55544 11.8538 0.52952 11.8168 0.502011 11.7738C0.460697 11.7097 0.387802 11.6755 0.308353 11.6823C0.231386 11.6907 0.165741 11.7416 0.139821 11.8137C-0.020667 12.2582 -0.0109345 12.6486 0.0149859 13.0426C0.0636487 13.7803 0.450567 14.363 1.13413 14.7287C1.67548 15.018 2.25735 15.0729 2.80515 15.0892L2.94607 15.0932C3.20418 15.1008 3.4619 15.1075 3.70541 15.1282C3.71157 15.1303 3.7216 15.1358 3.73093 15.1418C3.74921 15.4303 3.93591 15.6046 4.28688 15.6603C4.59485 15.7096 4.90519 15.7466 5.21594 15.7793C6.35376 15.8979 7.27507 16.3408 8.03322 17.1335C8.57705 17.703 8.99674 18.3827 9.40282 19.0397C9.49111 19.183 9.5799 19.3263 9.66948 19.4687C10.3546 20.5552 11.0415 21.6411 11.7323 22.7244C12.052 23.2259 12.5208 23.5525 13.0881 23.6696C13.5075 23.7563 13.9353 23.8251 14.349 23.8915C14.5022 23.9162 14.6553 23.9409 14.809 23.9664C14.5185 24.367 14.2271 24.7671 13.9362 25.1671C13.2227 26.1472 12.5091 27.1274 11.8093 28.1167C10.1039 30.5287 8.53702 32.967 7.15202 35.3647C5.52271 38.1854 4.36385 40.5934 3.5045 42.9429C3.04866 44.1901 2.78409 45.2375 2.67138 46.2396C2.51585 47.6241 2.67306 49.0695 3.13933 50.5356C3.37758 51.285 3.73093 51.8529 4.21994 52.2706C5.14821 53.0646 6.27301 53.3009 7.56437 52.9691C8.74796 52.6662 9.80921 52.1341 10.8821 51.5694C13.6378 50.1197 15.9855 48.7164 18.0588 47.2791C18.6756 46.8517 19.2857 46.3964 19.8761 45.9571L19.9661 45.8895C20.1023 45.7959 20.238 45.7011 20.3734 45.6061C20.5265 45.4983 20.6814 45.3885 20.8366 45.277L20.8836 45.3511C20.9249 45.415 20.9978 45.4517 21.076 45.4429C21.3678 45.4139 21.5951 45.2778 21.813 45.1416C21.6716 45.2897 21.5221 45.4596 21.4269 45.6949C21.399 45.7649 21.4127 45.844 21.4638 45.9005C21.5149 45.9571 21.5934 45.979 21.6672 45.9606C21.7791 45.9315 21.8747 45.8886 21.959 45.8381C21.9128 45.9188 21.874 46.0067 21.8476 46.1046C21.8285 46.1754 21.8504 46.2503 21.9047 46.3004C21.9589 46.3506 22.0372 46.3665 22.1073 46.3442C22.2146 46.3092 22.307 46.2598 22.3892 46.203C22.3754 46.2213 22.3621 46.2395 22.3487 46.2578L22.2527 46.3879C22.187 46.4755 22.2053 46.5989 22.2941 46.6645L22.3642 46.7171C22.423 46.7617 22.5015 46.7716 22.5701 46.7421C22.677 46.6959 22.769 46.6363 22.8513 46.5694C22.81 46.6506 22.7768 46.7388 22.7561 46.8364C22.7416 46.9048 22.7646 46.976 22.8169 47.0234C22.8695 47.0715 22.9433 47.0878 23.0117 47.068C23.0883 47.0457 23.1917 47.0099 23.282 46.9418C23.2528 47.0273 23.2314 47.1174 23.2213 47.2152C23.2136 47.2901 23.2492 47.3625 23.3141 47.4027C23.3785 47.4436 23.4604 47.4445 23.526 47.4067C23.5977 47.3652 23.6609 47.3175 23.7173 47.2662C23.7165 47.2689 23.7156 47.2723 23.7152 47.2746L23.6852 47.3868C23.6597 47.4771 23.7014 47.5726 23.7857 47.6164L23.8522 47.6506C23.9332 47.6921 24.0329 47.6753 24.0953 47.6088C24.1006 47.6032 24.1058 47.5985 24.1111 47.5929C24.1103 47.6 24.1098 47.6072 24.109 47.6148C24.1026 47.6925 24.1435 47.7672 24.2136 47.805C24.2833 47.8429 24.3695 47.8364 24.4332 47.7891C24.5896 47.673 24.6969 47.5304 24.7805 47.382C24.7403 47.5276 24.7185 47.6816 24.7382 47.8508C24.7468 47.9257 24.7979 47.9893 24.8703 48.0148C24.9425 48.0407 25.0231 48.024 25.0791 47.9726C25.3315 47.7382 25.4312 47.448 25.5277 47.1679C25.552 47.0975 25.5758 47.0271 25.603 46.9578L25.6083 46.9591L25.6055 46.973C25.5747 47.1186 25.5455 47.2579 25.5233 47.3977C25.5019 47.5345 25.4876 47.6723 25.4734 47.81L25.4552 47.9843C25.4435 48.089 25.5167 48.1845 25.6226 48.2024L25.715 48.2179C25.7936 48.231 25.8722 48.198 25.9168 48.1335C25.9585 48.0734 25.9929 48.0113 26.0224 47.9488C26.0277 48.0045 26.0407 48.0555 26.0524 48.1016L26.0674 48.1645C26.0861 48.2581 26.236 48.3237 26.3341 48.3237C26.3354 48.3237 26.3365 48.3237 26.3378 48.3237C26.3944 48.3225 26.4475 48.2987 26.4847 48.2576C26.4871 48.2708 26.4896 48.2835 26.4925 48.297C26.5074 48.3682 26.5601 48.4255 26.631 48.447C26.7015 48.4696 26.7789 48.451 26.832 48.4001C26.8661 48.3675 26.8964 48.3341 26.9223 48.2998L26.9244 48.3197C26.9341 48.4248 27.1213 48.5103 27.2125 48.4984C27.2793 48.4964 27.3401 48.4622 27.3762 48.4081C27.4106 48.4615 27.4701 48.498 27.539 48.5008L27.6488 48.5055C27.7331 48.5079 27.8039 48.465 27.8396 48.3941C27.9803 48.1116 27.9807 47.8223 27.9815 47.5428C27.9815 47.4497 27.9815 47.3598 27.9872 47.2723H28.02V47.2854C28.0188 47.4406 28.0179 47.5906 28.0224 47.741C28.0342 48.1219 28.0561 48.3444 28.3588 48.4805C28.4211 48.5088 28.494 48.5039 28.5524 48.4669C28.5937 48.441 28.6237 48.4013 28.6371 48.3563C28.6444 48.369 28.6516 48.3818 28.6595 48.3949C28.6976 48.4571 28.7692 48.4944 28.8405 48.4916C28.9143 48.4889 28.9807 48.4474 29.0144 48.3825C29.0306 48.3511 29.0444 48.3196 29.0565 48.2874C29.067 48.3073 29.0781 48.3268 29.087 48.3464C29.1283 48.4359 29.3025 48.4625 29.3989 48.4372C29.4817 48.4148 29.5409 48.344 29.5473 48.2604L29.5481 48.2532C29.5882 48.3006 29.6469 48.3281 29.7122 48.3261C29.7823 48.3233 29.8463 48.2851 29.8811 48.225C29.9386 48.1254 29.9702 48.0312 29.9776 47.9382C30.0108 48.0065 30.0509 48.0738 30.0999 48.1383C30.147 48.2004 30.2263 48.2291 30.3046 48.2139L30.403 48.1932C30.508 48.1709 30.5777 48.0718 30.5611 47.9679L30.4006 46.9587C30.4281 47.0271 30.4524 47.0995 30.4776 47.1739C30.5664 47.437 30.6668 47.7355 30.9509 47.948C31.0177 47.9981 31.1085 48.0028 31.1794 47.9595C31.2508 47.9166 31.2881 47.835 31.2726 47.7538C31.2349 47.5508 31.1786 47.3562 31.1177 47.1668C31.2102 47.3936 31.3374 47.6249 31.6007 47.7861C31.6708 47.8282 31.7603 47.8258 31.8272 47.7777C31.8628 47.7522 31.8884 47.7164 31.9013 47.6767C31.9196 47.6873 31.9394 47.6957 31.9609 47.7008C32.0221 47.7149 32.0866 47.7005 32.1356 47.6615L32.2483 47.5724C32.3143 47.5207 32.3407 47.4339 32.3143 47.3548L32.2932 47.289C32.3475 47.3349 32.4095 47.3765 32.4813 47.4124C32.5445 47.4447 32.6199 47.4411 32.6802 47.4041C32.7406 47.3671 32.7767 47.3022 32.7754 47.2322C32.7738 47.1271 32.7556 47.0319 32.7264 46.944C32.7803 46.9874 32.8402 47.0272 32.9071 47.0599C32.974 47.0925 33.0538 47.0865 33.115 47.044L33.1868 46.9938C33.2767 46.9313 33.299 46.8092 33.237 46.72L33.105 46.5294C33.2002 46.611 33.3076 46.6822 33.436 46.7351C33.5069 46.7633 33.5883 46.751 33.6467 46.7017L33.7127 46.6451C33.7954 46.5751 33.8063 46.4533 33.7379 46.3697L33.6292 46.238C33.6933 46.2858 33.7634 46.3288 33.8412 46.3642C33.9148 46.3976 34.0024 46.3845 34.0631 46.3307L34.1462 46.2567C34.2253 46.1866 34.2357 46.0688 34.1701 45.9864L34.0721 45.8626C34.1341 45.8961 34.2026 45.9235 34.2783 45.9421C34.3465 45.9597 34.4181 45.9401 34.4683 45.8928L34.5304 45.8339C34.6066 45.761 34.6126 45.6428 34.5442 45.5629L34.1745 45.1339C34.175 45.1339 34.1754 45.1343 34.1762 45.1347C34.3891 45.2712 34.63 45.4253 34.9364 45.4431C35.0178 45.4492 35.0863 45.4089 35.1244 45.3432L35.1706 45.263C35.1751 45.2665 35.1796 45.2701 35.184 45.2729C35.7683 45.7175 36.3729 46.1767 36.9815 46.612C39.5382 48.4422 42.3207 50.1252 45.4876 51.7564C46.4058 52.2292 47.4828 52.7561 48.6521 53.019C48.9427 53.0843 49.2344 53.1177 49.5192 53.1177C50.8528 53.1177 52.0035 52.3872 52.5975 51.1642C53.1424 50.0428 53.2928 48.8433 53.3629 47.9236C53.5143 45.9339 52.9374 44.0933 52.3536 42.5556C51.5954 40.5586 50.657 38.576 49.5638 36.6627C48.7449 35.2293 47.7679 33.5438 46.7348 31.9071C45.2384 29.5373 43.5013 27.0417 41.4239 24.2788C41.3473 24.1769 41.2728 24.0738 41.1953 23.9656C41.3412 23.9413 41.4874 23.9187 41.6338 23.8955C42.0409 23.8315 42.4619 23.7654 42.874 23.6763C43.2119 23.6026 43.6366 23.4721 43.9169 23.1088C44.156 22.7992 44.4343 22.4311 44.6847 22.0514C44.9348 21.6729 45.1779 21.2901 45.4214 20.9073C45.6325 20.575 45.844 20.2423 46.0596 19.9128C46.1985 19.7002 46.3359 19.4865 46.4733 19.2732C46.872 18.6528 47.2841 18.0116 47.731 17.4156C48.411 16.5098 49.3732 15.9682 50.5921 15.8054L50.9232 15.7641C51.2043 15.7294 51.4957 15.694 51.7809 15.6383C51.9377 15.6081 52.2336 15.4361 52.2397 15.2153C52.2412 15.1508 52.2545 15.1321 52.2545 15.1321C52.2752 15.1158 52.3766 15.1107 52.4248 15.1082C52.5654 15.1015 52.706 15.0975 52.8469 15.0927C53.1598 15.0828 53.4835 15.072 53.8028 15.0386C54.6469 14.9507 55.2502 14.6211 55.648 14.0314C56.0945 13.3688 56.0362 12.6453 55.9073 11.9616C55.8924 11.8828 55.843 11.8379 55.8101 11.8084L55.7785 11.7782C55.7339 11.7309 55.6675 11.7045 55.6034 11.7169C55.5382 11.7253 55.4814 11.7643 55.4511 11.8216L55.3802 11.9509C55.3303 12.0401 55.2849 12.1229 55.2453 12.2084C54.7959 13.193 54.1071 13.7847 53.1399 14.0175C52.5892 14.15 52.0358 14.2713 51.4823 14.3928C51.0395 14.4899 50.5961 14.587 50.1545 14.6901C49.4066 14.864 48.785 15.1883 48.306 15.654L47.9888 15.9608C47.578 16.3555 47.1533 16.7647 46.7741 17.204C45.7539 18.3883 44.6635 19.6693 43.601 21.0181C43.0941 21.6615 42.4884 21.9819 41.6951 22.0249C41.5771 22.0312 41.4589 22.0336 41.3402 22.0364C40.8742 22.0463 40.394 22.0567 39.9386 22.2883L38.8948 20.9221C38.6886 20.6328 38.4815 20.3443 38.2732 20.0561C38.1395 19.8719 38.0107 19.7207 37.8992 19.6188L37.6706 19.3195H38.0179C38.12 19.3195 38.2063 19.2447 38.2188 19.1452L38.2278 19.0756C38.2412 18.9725 38.171 18.877 38.0678 18.8559L37.8108 18.803C37.6268 18.7647 37.443 18.727 37.2582 18.6924C37.182 18.6781 37.1156 18.6279 37.0807 18.573H38.1242C38.2275 18.573 38.3207 18.4385 38.332 18.3377C38.343 18.2407 38.2802 18.1499 38.1842 18.124L38.1275 18.1073C38.0711 18.0903 38.0143 18.074 37.956 18.066C37.685 18.0282 37.4139 17.9936 37.1367 17.9617C37.0666 17.9534 36.994 17.9454 36.9657 17.947C36.9616 17.9263 36.9576 17.9056 36.954 17.8845C37.0641 17.8729 37.1752 17.8653 37.2867 17.8578C37.6218 17.8339 37.9686 17.8101 38.3066 17.6847C38.3913 17.6533 38.4444 17.5709 38.437 17.4821L38.4317 17.4232C38.4224 17.3205 38.3348 17.2422 38.2299 17.2422H36.8377L36.8157 17.1316L38.0285 16.8518C38.1331 16.8275 38.2002 16.7277 38.1817 16.6238L38.1606 16.5076C38.142 16.4022 38.0407 16.3289 37.9349 16.3448L36.7412 16.4973L37.8802 16.1598C37.9839 16.1292 38.0354 15.987 38.0087 15.8839L37.9908 15.8155C37.9644 15.7148 37.8632 15.654 37.7582 15.6695L36.4587 15.9031L36.4434 15.8613C36.526 15.8387 36.6087 15.8183 36.6909 15.7976C37.0431 15.7093 37.4077 15.6185 37.7356 15.4016C37.8033 15.357 37.8369 15.2767 37.821 15.1979C37.8053 15.1194 37.7428 15.0574 37.663 15.0414C37.5718 15.0223 37.481 15.0179 37.3926 15.0267C37.4685 14.9451 37.5361 14.8524 37.5952 14.7493L37.9389 14.1556C38.1338 13.8197 38.3287 13.4838 38.5195 13.1456C38.9215 12.4328 39.3223 11.7193 39.7234 11.0058C40.4798 9.65866 41.2363 8.31156 42.0021 6.96972C42.3591 6.34499 42.8178 5.63218 43.5151 5.08499C43.7181 4.92542 43.8794 4.88601 44.0904 4.93976C44.6764 5.09055 45.3028 5.09377 45.9572 4.94736C47.0508 4.70342 48.1006 4.29708 49.0719 3.89473C49.5629 3.69097 49.9114 3.3491 50.108 2.8775C50.1724 2.72271 50.2243 2.56353 50.2757 2.40435L50.3442 2.19708C50.375 2.10676 50.3364 2.00766 50.2521 1.96074L50.1586 1.90817C50.082 1.86554 49.9856 1.87637 49.9207 1.93528C49.8817 1.9703 49.8421 2.00454 49.8024 2.03916C49.7052 2.12314 49.6047 2.20985 49.515 2.31217C49.4125 2.42912 49.3287 2.55651 49.2477 2.67989L49.184 2.77538C49.0605 2.95885 48.9117 3.05034 48.7011 3.07385C48.2493 3.12437 47.7978 3.17773 47.3461 3.23098C46.5503 3.32491 45.7545 3.41962 44.957 3.49648C44.2941 3.56134 43.6754 3.73643 43.1178 4.01734C42.5002 4.32819 42.127 4.88689 41.826 5.38551C41.4496 6.00868 41.0877 6.65341 40.7377 7.27619C40.5643 7.58509 40.3909 7.89419 40.215 8.20144L40.1012 8.40441C39.8479 8.85933 39.6084 9.2887 39.1741 9.56571C39.0352 9.65447 38.9747 9.82633 38.9548 9.89636C38.8908 10.1236 38.745 10.2895 38.5303 10.4837L38.414 10.5884C38.1677 10.8088 37.9127 11.0365 37.7243 11.3158C37.2661 11.9968 36.8358 12.7099 36.42 13.3987L36.2587 13.6657C36.2349 13.7055 36.2203 13.7239 36.2174 13.7298C36.0343 13.6776 35.8094 13.6845 35.5878 13.7059C35.5318 13.7115 35.4759 13.7166 35.42 13.7203L35.6996 13.4094C35.768 13.3334 35.7673 13.2187 35.6975 13.1435L35.6355 13.0775C35.5646 13.0027 35.4478 12.9927 35.3645 13.054L34.956 13.3584L35.3033 12.9354C35.3711 12.8534 35.3612 12.734 35.2819 12.6631L35.2114 12.6002C35.1351 12.5321 35.0201 12.5314 34.9427 12.597L34.7089 12.7952L34.8422 12.5767C34.8961 12.4883 34.8727 12.3741 34.788 12.3137L34.7089 12.2583C34.6246 12.199 34.5072 12.211 34.4382 12.2878L34.3402 12.3969C34.3632 12.3412 34.3589 12.279 34.3309 12.2281C34.5919 12.0287 34.7608 11.7442 34.8049 11.4207C34.8475 11.1075 34.7649 10.796 34.58 10.5551C34.749 10.5301 34.9131 10.5034 35.0747 10.4656C35.9629 10.2591 36.4641 9.52328 36.3211 8.63343C36.2174 7.98715 35.8413 7.44317 35.1715 6.97002C34.176 6.26755 33.0078 5.9918 31.7088 6.15264C31.689 6.15499 31.6715 6.15703 31.6748 6.17654C31.6744 6.17615 31.6662 6.16425 31.6549 6.12397C31.4543 5.42199 30.8007 5.05349 30.0932 5.25168C29.9036 5.30504 29.7384 5.40492 29.5779 5.50197L29.5407 5.5246C29.5236 5.52577 29.5066 5.52781 29.4895 5.52938C28.5317 4.62685 27.4264 4.64119 26.4798 5.55922C26.0571 5.2946 25.7495 5.17999 25.4709 5.17999C24.9319 5.17999 24.6013 5.63403 24.3319 6.15333C24.3079 6.15177 24.2841 6.14972 24.2606 6.14777C22.5076 5.97347 21.194 6.43668 20.2046 7.56334C19.7548 8.07552 19.5789 8.67489 19.6956 9.29601C19.8062 9.88339 20.2288 10.279 20.9521 10.4728C21.1134 10.5157 21.2743 10.5396 21.4315 10.5595C21.3528 10.6757 21.2783 10.7987 21.2333 10.9395C21.0798 11.4247 21.2536 11.9017 21.6657 12.2233C21.6357 12.2746 21.6297 12.3375 21.6523 12.3948L21.5547 12.2861C21.485 12.2077 21.3659 12.1958 21.2816 12.2583L21.2087 12.312C21.1253 12.373 21.103 12.4863 21.1561 12.5735L21.2938 12.8L21.0577 12.599C20.9766 12.5305 20.8551 12.5357 20.7801 12.6105L20.7096 12.6814C20.6363 12.7542 20.6517 12.8947 20.718 12.973L21.043 13.3591L20.6305 13.0534C20.545 12.9909 20.425 13.0029 20.3553 13.0821L20.2986 13.1461C20.2314 13.2217 20.2318 13.3348 20.2998 13.4092L20.562 13.6994C20.442 13.691 20.3173 13.6831 20.1827 13.6763C20.1065 13.6763 20.0272 13.6914 19.9538 13.7204C19.8566 13.7578 19.7816 13.732 19.729 13.6352L19.6212 13.4362C19.4693 13.154 19.3117 12.8628 19.1398 12.5826C18.684 11.8392 18.167 10.9967 17.3574 10.3787C17.3238 10.3532 17.261 10.305 17.25 10.2836C17.0831 9.83306 16.7609 9.51908 16.4498 9.21545L16.3473 9.11518C16.3072 9.07538 16.2731 9.02047 16.2513 8.98184L16.0418 8.62329C15.8453 8.28747 15.6487 7.95193 15.4636 7.61055L15.2939 7.29492C14.8599 6.48827 14.4105 5.65374 13.8376 4.90045C13.4474 4.3871 13.0625 4.07069 12.5896 3.87454C11.915 3.59519 11.2136 3.52272 10.5353 3.45269C9.83304 3.37983 9.1325 3.29428 8.43146 3.20835C8.04652 3.16105 7.66119 3.11364 7.27586 3.06868C7.07575 3.04478 6.93026 2.94851 6.80463 2.75509C6.69688 2.58957 6.56598 2.39693 6.41195 2.2238C6.33171 2.1326 6.23776 2.06774 6.14699 2.00493C6.11292 1.98103 6.07886 1.95762 6.04609 1.93245C5.96227 1.86798 5.82532 1.899 5.75401 1.97469L5.71508 2.01566C5.6685 2.06501 5.64983 2.13348 5.66602 2.19864C5.83495 2.87955 6.09833 3.55335 6.87872 3.86888C7.61253 4.16618 8.35767 4.43519 8.92454 4.63651C10.145 5.0687 11.0887 5.15824 12.1122 4.92308C12.19 4.92308 12.3205 4.97604 12.423 5.0489C12.9445 5.4214 13.3893 5.93913 13.8225 6.67818C14.4943 7.82504 15.1442 8.96965 15.7464 10.0354C16.0491 10.5718 16.3469 11.1098 16.645 11.6486C16.8979 12.1051 17.1507 12.562 17.4061 13.0168C17.7403 13.6122 18.0848 14.2015 18.4292 14.7908C18.4794 14.8764 18.5361 14.954 18.5998 15.024C18.5463 15.0165 18.4907 15.0185 18.4344 15.0213L18.3761 15.0234C18.2772 15.0234 18.1921 15.0962 18.1759 15.1921L18.1617 15.2733C18.1439 15.3727 18.2043 15.4695 18.3027 15.4986L19.5512 15.8679L19.5374 15.9036L18.2437 15.6641C18.1383 15.6442 18.0346 15.7095 18.0095 15.8125L17.9904 15.8909C17.9698 15.976 18.0083 16.0648 18.0853 16.1089C18.3661 16.2701 18.6712 16.3433 18.9665 16.4137C19.0845 16.442 19.1979 16.4694 19.309 16.5012L18.0626 16.3448C17.9537 16.3309 17.8551 16.4033 17.837 16.5088L17.8175 16.6206C17.7992 16.724 17.8662 16.8235 17.9699 16.8478L19.187 17.1331C19.1818 17.1641 19.1769 17.1953 19.174 17.2263C19.1699 17.2676 19.1631 17.2804 19.153 17.2676C19.1399 17.2676 19.1258 17.2665 19.11 17.2648C18.8203 17.2342 18.5269 17.2258 18.2433 17.2182L18.1088 17.2151C18.0258 17.2151 17.9426 17.2226 17.8596 17.2298L17.7449 17.2393C17.6416 17.2466 17.5581 17.3878 17.5541 17.4892C17.5505 17.5759 17.6048 17.6548 17.6878 17.6842C18.0258 17.804 18.3726 17.8303 18.708 17.8562C18.8276 17.8649 18.9467 17.8741 19.0655 17.8876C19.0655 17.9107 19.067 17.9254 19.0707 17.9274C19.0443 17.9398 18.9369 17.9521 18.843 17.962L18.7162 17.9731C18.6461 17.9791 18.576 17.9842 18.5071 17.9946C18.347 18.0181 18.1874 18.0434 18.0281 18.0694L17.8402 18.1C17.7368 18.1163 17.6631 18.2078 17.6707 18.3101L17.6764 18.3849C17.6849 18.4884 17.7728 18.5679 17.8786 18.5679H18.9212C18.8791 18.6352 18.8089 18.6781 18.7117 18.6969C18.527 18.7323 18.3426 18.7713 18.1582 18.8099L17.9342 18.8568C17.828 18.8792 17.7583 18.9793 17.7762 19.0841L17.7883 19.1557C17.8053 19.2508 17.8896 19.3204 17.9881 19.3204H18.3297L16.076 22.2672C16.0143 22.2517 15.9544 22.2358 15.8956 22.2203C15.6732 22.1618 15.4629 22.1061 15.2461 22.0723C15.0143 22.0353 14.781 22.0313 14.5549 22.0277L14.4261 22.0253C13.5525 22.0062 12.909 21.684 12.4009 21.0102C11.655 20.0221 10.815 18.9894 9.83284 17.8531C9.48764 17.4544 9.10836 17.0779 8.74121 16.7134C8.47744 16.4515 8.21327 16.1893 7.96002 15.9175C7.35631 15.2696 6.59856 14.8438 5.70883 14.6512C5.50057 14.6062 5.29231 14.5597 5.08396 14.513C4.56128 14.396 4.02033 14.2754 3.48265 14.1779C2.07858 13.9283 1.17217 13.2506 0.711459 12.1109Z" fill="#6FCF97"/>
</g>
<defs>
<clipPath id="clip0">
<rect width="56" height="55" fill="white"/>
</clipPath>
</defs>
</svg>
