<svg width="56" height="55" viewBox="0 0 56 55" fill="none" xmlns="http://www.w3.org/2000/svg">
<g clip-path="url(#clip0)">
<path d="M2.69427 47.7721C2.93471 48.0492 3.18207 48.3204 3.44608 48.5735C3.73407 48.8503 4.08392 49.0714 4.42666 49.2843C4.64466 49.4198 4.89912 49.4996 5.14079 49.5961C5.47357 49.7296 5.8093 49.8566 6.14544 49.9828C6.18729 49.9986 6.23828 49.9901 6.28471 49.9962C6.59677 50.0373 6.90924 50.1179 7.22008 50.1119C7.34818 50.1095 7.47617 50.1037 7.60467 50.0956C8.65575 50.2164 9.72755 50.1347 10.74 49.8158C11.2262 49.6628 11.5345 49.1825 11.3949 48.6834C11.2636 48.215 10.7284 47.8872 10.2419 48.0403C10.0454 48.1021 9.8461 48.1576 9.64415 48.1995C9.63054 48.2023 9.61682 48.2048 9.60311 48.2076C9.08585 48.2121 8.569 48.2138 8.05306 48.1909C7.74933 48.1774 7.45047 48.0432 7.1504 47.9602C6.98675 47.9146 6.82838 47.8478 6.6626 47.8132C6.25393 47.7273 5.92734 47.494 5.57546 47.291C4.98486 46.9499 4.56999 46.439 4.134 45.953C3.92139 45.7161 3.8132 45.3876 3.66479 45.0974C3.52796 44.8295 3.38381 44.5633 3.27522 44.2846C3.19273 44.0729 3.15921 43.8429 3.10781 43.6202C3.02157 43.2462 2.93705 42.8716 2.85538 42.4963C2.84085 42.4296 2.83841 42.3595 2.83801 42.2907C2.83384 41.7384 2.81109 41.1852 2.83506 40.634C2.85203 40.2453 2.91257 39.8553 2.9917 39.4735C3.05174 39.1845 3.14712 38.8959 3.27319 38.628C3.40992 38.337 3.61806 38.0789 3.76424 37.7915C4.05151 37.2281 4.50569 36.8011 4.95824 36.3806C5.22225 36.1356 5.55839 35.9659 5.86212 35.7627C6.12035 35.5905 6.37065 35.4049 6.64004 35.2519C6.85885 35.1277 7.10346 35.0471 7.33263 34.94C7.57877 34.8249 7.818 34.6963 8.06454 34.5831C8.21752 34.5126 8.37955 34.4609 8.537 34.3995C8.76038 34.3124 8.98 34.2159 9.20714 34.1398C9.40279 34.0738 9.60921 34.0383 9.80567 33.9749C10.015 33.9069 10.2189 33.821 10.4249 33.7429C10.4526 33.7323 10.48 33.7209 10.5082 33.712C10.7876 33.6236 11.0645 33.5275 11.3467 33.4498C11.5854 33.3842 11.8337 33.3513 12.0712 33.2821C12.1893 33.2479 12.3045 33.2044 12.4193 33.1595C15.0801 32.5978 17.6739 31.7808 20.1854 30.7461C20.3789 30.8743 20.5812 30.9866 20.7872 31.0998C21.098 31.2712 21.4266 31.3795 21.75 31.513C21.9489 31.5952 22.1541 31.6486 22.3579 31.7031C22.5524 31.7776 22.7505 31.8431 22.951 31.8977C23.0931 31.9363 23.2366 31.9566 23.3791 31.9611C24.0207 32.0658 24.6702 32.056 25.3213 32.0478C25.5621 32.0446 25.669 32.1382 25.7818 32.3584C25.9161 32.6214 25.9028 32.8754 25.8697 33.1256C25.8302 33.4225 25.7159 33.7102 25.6276 34C25.5857 34.1385 25.5232 34.2704 25.4817 34.4088C25.4514 34.5109 25.497 34.6803 25.3247 34.6575C25.2264 34.6444 25.1088 34.5472 25.0578 34.4564C24.8896 34.1568 24.7192 33.8567 24.4515 33.6374C24.1825 33.4172 23.5251 33.3125 23.1513 33.5319C22.9396 33.6564 22.852 33.8184 22.7895 34.0212C22.7443 34.1681 22.6473 34.3329 22.6805 34.4636C22.7709 34.8234 22.8321 35.2057 23.2574 35.3954C23.4178 35.4671 23.5694 35.5331 23.7262 35.502C23.9479 35.4584 24.1087 35.5826 24.262 35.673C24.3341 35.7153 24.3407 35.9234 24.3154 36.0435C24.3013 36.1119 24.1642 36.1997 24.0796 36.2026C23.6974 36.2157 23.3104 36.1631 22.9328 36.2054C22.3044 36.2758 21.8287 36.6279 21.9766 37.3346C22.0334 37.6062 22.1287 37.9565 22.4213 38.0648C22.7268 38.178 23.0285 38.3851 23.4296 38.1682C23.6663 38.0404 23.8959 37.9418 24.0808 37.7387C24.1483 37.665 24.2992 37.6646 24.4343 37.6235C24.5453 37.8626 24.518 37.8906 24.2855 38.0012C23.7819 38.2406 23.2776 38.5105 23.0052 39.0092C22.9024 39.1977 22.9303 39.4973 22.9949 39.7195C23.0521 39.9161 23.234 40.0826 23.3761 40.2494C23.5833 40.4929 24.1031 40.5116 24.3836 40.3919C24.7086 40.2531 24.9009 39.9962 25.1256 39.7662C25.2204 39.6689 25.2714 39.5232 25.3199 39.3917C25.3846 39.2171 25.4277 39.0347 25.4761 38.8687C25.6116 38.9029 25.7066 38.9387 25.8043 38.9484C25.8483 38.9529 25.8864 38.9631 25.9187 38.9778C25.8913 39.2892 25.8934 39.6026 25.9323 39.9108C25.9419 39.9853 25.9535 40.0619 25.9676 40.1392C25.9701 40.1562 25.9721 40.1734 25.9742 40.1905C25.9759 40.2039 25.9805 40.2174 25.9858 40.2304C25.9995 40.2934 26.0152 40.3566 26.0334 40.4188C26.0541 40.5495 26.1034 40.6619 26.1693 40.7644C26.258 40.9333 26.3774 41.0812 26.539 41.1854C26.5697 41.2167 26.6003 41.2485 26.6302 41.2806C26.6551 41.2742 26.6795 41.2713 26.7031 41.2701C26.7442 41.2863 26.7868 41.3006 26.832 41.3116C26.8926 41.3266 26.9526 41.336 27.0115 41.3405C27.1205 41.3755 27.2379 41.4004 27.3841 41.3515C27.7767 41.2208 28.063 40.9842 28.218 40.7018C28.3851 40.3973 28.5521 40.0224 28.3175 39.6022C28.1645 39.3279 27.976 39.1317 27.7381 38.955C27.5387 38.8074 27.5147 38.5464 27.6775 38.3522C27.6982 38.3278 27.7164 38.3008 27.7339 38.2736C27.8309 38.2248 27.9113 38.1393 27.9536 38.0143C28.0033 37.9887 28.0606 37.9732 28.1023 37.9826C28.414 38.0506 28.7179 38.1544 29.0308 38.2178C29.2265 38.2573 29.4329 38.2439 29.6339 38.2614C29.9493 38.2887 30.2261 38.1943 30.4388 37.9732C30.5432 37.865 30.6336 37.7135 30.6602 37.5689C30.7 37.3532 30.692 37.1258 30.68 36.9043C30.6556 36.4614 30.3854 36.2053 29.9717 36.0258C29.7023 35.9086 29.4478 35.9058 29.1863 35.9277C29.0189 35.942 28.8581 36.0425 28.6965 36.1092C28.6178 36.1418 28.5439 36.1845 28.4731 36.2204C28.289 35.8654 28.2145 35.5109 28.0221 35.1914C27.9202 35.0224 27.9057 34.7261 28.0984 34.4966C28.28 34.2796 28.4014 34.015 28.5664 33.783C28.7276 33.5563 28.9203 33.3515 29.0799 33.124C29.2058 32.9441 29.3032 32.745 29.4131 32.5541C29.5379 32.3376 29.6928 32.1312 29.7769 31.9C29.845 31.7135 29.8354 31.4974 29.8437 31.2939C29.85 31.1336 29.876 30.9523 29.8134 30.816C29.6796 30.5241 29.7139 30.1895 29.4727 29.9139C29.2704 29.6827 29.0772 29.4418 28.8281 29.2704C28.4846 29.0339 28.1978 28.7221 27.7891 28.5658C27.3995 28.4165 27.0306 28.2125 26.6571 28.0236C26.4296 27.9088 26.2108 27.7777 25.9882 27.6535C25.9816 27.6499 25.9745 27.6458 25.9671 27.6441C25.7616 27.59 25.556 27.5363 25.2816 27.4647C25.3669 27.2884 25.415 27.1032 25.5286 26.9737C25.7421 26.7311 25.9352 26.4474 26.263 26.3371C26.6633 26.2023 27.0604 25.9687 27.5018 26.219C27.5275 26.2336 27.5623 26.232 27.5929 26.2373C27.9108 26.2887 28.2321 26.3236 28.5445 26.3965C28.7568 26.4457 28.9557 26.5483 29.1608 26.6265C29.1824 26.6347 29.2048 26.6412 29.2272 26.6457C29.5176 26.6989 29.8202 26.7169 30.0958 26.8109C30.7722 27.0424 31.4627 26.9142 32.147 26.9326C32.5274 26.9429 32.8847 26.8255 33.2307 26.6737C33.4696 26.569 33.7186 26.486 33.9524 26.3717C34.0556 26.3212 34.128 26.2138 34.2206 26.1388C34.311 26.0652 34.3997 25.9887 34.4891 25.9134C34.628 25.8474 34.7661 25.777 34.9032 25.7009C34.9562 25.6711 35.0094 25.6406 35.0619 25.6097C34.9496 26.3306 34.8215 27.0494 34.6789 27.7654C34.6432 27.9441 34.6064 28.1227 34.5691 28.301C34.5425 28.3613 34.5157 28.4219 34.4904 28.4826C34.4211 28.6486 34.3842 28.8277 34.3226 28.9975C34.2533 29.1872 34.1696 29.372 34.097 29.5608C34.0735 29.6227 34.0655 29.6899 34.0485 29.7542C34.0125 29.8892 33.9718 30.0231 33.9391 30.1592C33.9267 30.2101 33.9068 30.2777 33.9291 30.3159C34.0676 30.55 34.186 30.8064 34.3721 30.9986C34.5255 31.1569 34.7597 31.244 34.9644 31.3499C35.2321 31.4883 35.5028 31.623 35.7801 31.7414C35.9487 31.8136 36.1373 31.8395 36.3072 31.9088C36.6081 32.0314 36.9032 32.1682 37.197 32.3064C37.2347 32.324 37.2716 32.3838 37.2745 32.4262C37.2966 32.7529 37.4714 32.9992 37.7069 33.2342C37.5693 33.3681 37.4287 33.4967 37.2974 33.6344C37.0491 33.8948 36.968 34.2087 36.9737 34.562C36.9786 34.8539 37.0168 35.1164 37.299 35.2781C37.3616 35.3139 37.4324 35.3534 37.5017 35.3566C37.7114 35.3671 37.9223 35.3628 38.1329 35.362C38.4748 35.3603 38.641 35.0925 38.808 34.8751C38.9145 34.7362 38.9158 34.5164 38.951 34.33C38.9609 34.2772 38.9194 34.216 38.9083 34.1574C38.8967 34.0976 38.8689 34.0248 38.8912 33.9776C38.9037 33.9514 38.9183 33.9296 38.934 33.9107C38.9584 33.903 38.9825 33.8945 39.0061 33.8855C39.0803 34.041 39.2262 34.1196 39.3915 34.1342C39.3929 34.2078 39.3887 34.2828 39.3961 34.3561C39.4313 34.7037 39.5333 35.0285 39.7695 35.2992C39.9109 35.4608 40.2068 35.5186 40.4725 35.4987C40.6942 35.5317 40.9222 35.482 41.0938 35.3151C41.2106 35.2015 41.2815 35.0639 41.3134 34.9186C41.3369 34.8685 41.3494 34.8098 41.352 34.7549C41.359 34.5953 41.3544 34.435 41.3544 34.2852C41.5571 34.3284 41.7381 34.3934 41.9213 34.4012C42.391 34.4206 42.4655 34.4281 42.7847 33.894C42.9008 33.6998 42.9078 33.5252 42.8917 33.3412C42.8847 33.2594 42.8452 33.1646 42.7876 33.069C42.7863 32.9749 42.7711 32.88 42.7395 32.7868C42.6371 32.4856 42.3284 32.416 42.0946 32.5035C41.8546 32.449 41.6047 32.4954 41.3477 32.4274C41.4107 32.2181 41.4645 32.0195 41.5346 31.8262C41.5454 31.7964 41.6292 31.7819 41.6806 31.7782C41.8049 31.7697 41.9305 31.7688 42.0552 31.7697C42.4721 31.7725 42.776 31.5604 43.047 31.2775C43.2771 31.0378 43.3538 30.76 43.3285 30.4349C43.3115 30.2204 42.9323 29.7885 42.7371 29.6887C42.4872 29.5609 42.2401 29.5674 41.9823 29.5613C41.5376 29.5508 41.1824 29.8894 41.0747 30.2672C41.0058 30.5081 40.7162 30.6055 40.5176 30.4572C40.4496 30.4063 40.3564 30.3877 40.2494 30.3436C40.237 30.1662 40.2412 29.994 40.3236 29.7847C40.4475 29.4701 40.5014 29.1046 40.4802 28.767C40.4632 28.4972 40.307 28.1886 40.0286 28.084C39.8097 28.0018 39.5138 27.9956 39.2941 28.0727C39.0633 28.1533 38.7769 28.2037 38.6326 28.4581C38.5671 28.5741 38.4267 28.6803 38.4242 28.7935C38.415 29.2045 38.2944 29.6311 38.5332 30.0227C38.5397 30.0333 38.5318 30.0525 38.5302 30.0732C38.3417 30.2169 38.2451 30.0167 38.1394 29.9454C37.7079 29.6548 37.7672 29.1996 37.8655 28.8049C37.9611 28.4206 38.1924 28.0697 38.3586 27.7016C38.4734 27.4481 38.5737 27.188 38.6902 26.9347C38.7602 26.782 38.861 26.6424 38.9264 26.4878C38.9973 26.3209 39.0321 26.1394 39.1025 25.972C39.1668 25.8186 39.2522 25.6724 39.3372 25.528C39.4337 25.3647 39.5365 25.2052 39.6439 25.0485C39.7542 24.8872 39.8664 24.7264 39.9895 24.5747C40.2494 24.2543 40.5105 23.9343 40.784 23.625C41.0348 23.3407 41.3009 23.0689 41.5637 22.795C41.6267 22.7294 41.731 22.6895 41.7675 22.615C41.872 22.3993 42.0937 22.3345 42.2728 22.3203C42.4527 22.306 42.6496 22.4148 42.7913 22.5759C43.0474 22.8665 43.3106 23.1527 43.5875 23.4246C43.8284 23.6611 44.1338 23.7873 44.4463 23.927C44.8225 24.0954 45.2316 23.9387 45.5848 24.1394C45.6374 24.1691 45.7443 24.0983 45.8284 24.084C45.9408 24.0649 46.0556 24.058 46.1687 24.0421C46.5455 23.99 46.9305 23.9668 47.2969 23.8736C47.6333 23.7882 47.9483 23.6233 48.275 23.4983C48.5478 23.3936 48.8287 23.3074 49.096 23.1914C49.2979 23.1039 49.4832 22.9793 49.6783 22.8755C49.9126 22.7505 50.1508 22.6325 50.3849 22.5072C50.5553 22.4156 50.7268 22.3248 50.889 22.2197C51.1542 22.0475 51.419 21.8733 51.6709 21.6833C52.1832 21.2974 52.7104 20.933 53.2024 20.5171C53.5414 20.2305 53.8672 19.935 54.1905 19.6325C54.5875 19.2609 54.9656 18.8791 55.2909 18.4415C55.5201 18.1329 55.7057 17.8129 55.8645 17.4636C56.087 16.9728 55.9705 16.4765 55.9494 15.9873C55.937 15.6983 55.8205 15.3949 55.6808 15.134C55.5096 14.8141 55.3182 14.4999 54.9302 14.344C54.6408 14.228 54.3948 14.0106 54.1187 13.8575C53.9728 13.7769 53.8012 13.7428 53.6454 13.6784C53.5894 13.6553 53.5339 13.63 53.4788 13.6048C53.4265 13.5796 53.374 13.5551 53.3213 13.5316C53.2653 13.5054 53.2093 13.4798 53.153 13.4554C53.0478 13.4102 52.9416 13.3647 52.8339 13.3259C52.7729 13.3011 52.712 13.2767 52.6514 13.2519C52.2764 13.0997 51.8921 12.9686 51.4993 12.8701C50.6496 12.6567 49.7705 12.542 48.8906 12.531C48.7966 12.5102 48.7021 12.4924 48.608 12.4786C48.4472 12.4349 48.2805 12.4127 48.1077 12.4123C48.0725 12.4171 48.0368 12.4216 48.0012 12.4265C47.5142 12.4115 47.0285 12.4518 46.5465 12.4794C46.2058 12.4989 45.8444 12.5315 45.4991 12.593C45.2231 12.6422 44.9583 12.7493 44.6881 12.8303C44.5239 12.8792 44.3623 12.9414 44.1945 12.972C43.6921 13.0632 43.2723 13.342 42.845 13.5794C42.5436 13.7471 42.322 14.0515 42.0616 14.2917C41.876 14.4631 41.8051 14.6657 41.7558 14.917C41.6965 15.219 41.4918 15.4905 41.3902 15.788C41.2836 16.1002 41.0495 16.2854 40.8183 16.4939C40.6437 16.6509 40.4341 16.6192 40.306 16.5533C39.9852 16.3872 39.6673 16.1968 39.5139 15.8271C39.4356 15.6383 39.2744 15.4836 39.1604 15.3069C39.0907 15.1991 39.0447 15.0762 38.9797 14.9649C38.7821 14.6279 38.5869 14.2889 38.3771 13.9587C38.2063 13.6897 38.0215 13.4287 37.8346 13.1699C37.5291 12.747 37.3667 12.2837 37.4283 11.7628C37.4395 11.6683 37.5162 11.5812 37.563 11.4908C37.6248 11.5261 37.694 11.5535 37.7474 11.5986C37.9178 11.7431 38.0823 11.8938 38.249 12.0423C38.4152 12.19 38.6005 12.295 38.8321 12.2971C38.9883 12.2984 39.1454 12.3093 39.3004 12.2975C39.6515 12.2711 39.8852 12.0607 40.0929 11.8026C40.3051 11.5385 40.2798 11.2213 40.2056 10.953C40.1446 10.7328 39.9337 10.5361 39.7517 10.3681C39.4745 10.1117 39.1181 10.0563 38.747 10.0969C38.6882 10.1034 38.6326 10.143 38.5738 10.1479C38.4607 10.1573 38.345 10.1638 38.2328 10.1507C38.1523 10.1413 38.0765 10.0974 37.9833 10.0632C37.9319 9.86417 37.8771 9.65206 37.8063 9.3777C38.1441 9.3325 38.4255 9.26705 38.7078 9.26296C39.1222 9.25717 39.4227 9.06263 39.6826 8.80303C39.7481 8.76112 39.8098 8.71104 39.8662 8.65158C40.1865 8.31167 40.2769 7.81911 40.039 7.40437C39.8037 6.99402 39.2864 6.6998 38.8018 6.86502C38.6805 6.90652 38.5693 6.9615 38.4711 7.02864C38.2958 7.12352 38.0658 7.15445 37.9285 7.33194C37.8452 7.44019 37.7508 7.55422 37.7143 7.68073C37.619 8.00757 37.5254 8.07392 37.158 8.00847C37.0984 7.70886 37.2356 7.43809 37.5125 7.33393C37.7486 7.24474 37.8568 7.04929 38.0052 6.86702C38.1835 6.64802 38.0956 6.39681 38.1959 6.17213C38.253 6.04392 38.1118 5.82244 38.0417 5.65034C38.0031 5.55595 37.9351 5.46886 37.8668 5.39024C37.534 5.00932 37.0817 5.06669 36.6685 5.1476C36.4796 5.18462 36.3009 5.39672 36.1712 5.56892C35.9822 5.81934 35.8685 6.11526 35.8872 6.43891C35.8914 6.51294 35.9424 6.58337 35.9639 6.6574C35.9822 6.72175 36.0079 6.79179 35.9974 6.85445C35.9676 7.03762 35.9199 7.218 35.8868 7.40078C35.6796 7.55342 35.4573 7.64621 35.2568 7.55831C35.1512 7.46134 35.0575 7.34301 35.0198 7.26519C34.8403 6.89685 34.9539 6.50156 34.871 6.13561C34.7927 5.78842 34.6293 5.46556 34.3003 5.22502C34.0636 5.05162 33.7913 5.00274 33.5485 4.87174C33.5049 4.8481 33.4374 4.846 33.3877 4.85907C32.9563 4.97221 32.5695 5.11797 32.3312 5.55436C32.146 5.89337 32.1837 6.23209 32.2467 6.54756C32.3093 6.86023 32.5485 7.1329 32.8261 7.32505C32.8783 7.36127 32.9355 7.391 32.994 7.41834C33.1494 7.55552 33.3188 7.68043 33.4863 7.80055C33.5208 7.82539 33.5584 7.84206 33.5979 7.85303C33.6098 7.88027 33.6186 7.908 33.6218 7.93474C33.648 8.14565 33.6198 8.35207 33.5323 8.57346C33.5257 8.59052 33.5186 8.60598 33.5112 8.62145C33.4644 8.67592 33.425 8.73538 33.394 8.79814C33.3434 8.84942 33.285 8.88643 33.2145 8.91537C32.6947 8.74646 32.119 8.78138 31.6137 8.99109C31.2329 9.05055 30.9431 9.27404 30.7334 9.60337C30.6489 9.73606 30.6862 9.94358 30.6684 10.117C30.615 10.634 30.8765 11.0487 31.2797 11.2739C31.5865 11.4453 31.974 11.5707 32.4087 11.3821C32.6913 11.2596 32.938 11.1277 33.1604 10.9308C33.2401 10.8604 33.3237 10.794 33.3747 10.7521C33.6532 11.0667 33.8961 11.3355 34.1311 11.6105C34.1697 11.6557 34.1928 11.7281 34.1928 11.788C34.1923 12.1254 34.1904 12.4633 34.1716 12.8003C34.1662 12.9004 34.0888 12.9948 34.0713 13.0962C34.0237 13.3705 34.1377 13.5916 34.2637 13.8398C34.3918 14.0927 34.6272 14.2762 34.7802 14.5095C34.7732 14.5913 34.7901 14.6792 34.8407 14.7693C34.8573 14.7985 34.8714 14.8292 34.883 14.86C34.8614 14.9678 34.8133 15.068 34.737 15.1412C34.6471 15.2275 34.5389 15.2853 34.4241 15.3138C34.2964 15.2877 34.1692 15.2601 34.042 15.2336C33.9902 15.2226 33.9383 15.2079 33.8862 15.2034C33.8572 15.201 33.8277 15.1985 33.7987 15.1961C33.7381 15.179 33.6789 15.1758 33.6234 15.1835C33.1103 15.1505 32.5918 15.142 32.0974 15.0301C31.4219 14.8766 30.7533 14.9458 30.0831 14.9421C29.5774 14.9393 29.0682 15.006 28.5662 15.0817C28.1832 15.1395 27.7965 15.2242 27.4368 15.3605C26.9792 15.5343 26.5461 15.7709 26.1043 15.9833C25.6389 16.2072 25.241 16.5263 24.8692 16.8727C24.6284 17.0966 24.4178 17.353 24.2024 17.6018C23.9778 17.8607 23.7514 18.1199 23.548 18.3947C23.4129 18.5771 23.325 18.792 23.2015 18.9829C23.0564 19.2064 22.8906 19.4169 22.7426 19.6387C22.6137 19.8317 22.5014 20.0352 22.3742 20.2293C22.2594 20.404 22.1281 20.5681 22.0153 20.7438C21.8926 20.9352 21.7919 21.1403 21.6656 21.3292C21.5184 21.549 21.3588 21.7619 21.1935 21.9691C21.106 22.0782 21.0012 22.1762 20.8926 22.2666C20.6625 22.4584 20.4786 22.3965 20.4148 22.107C20.3572 21.8457 20.3219 21.5786 20.254 21.3201C20.1868 21.0645 20.0898 20.8162 20.0085 20.5643C19.9944 20.5211 19.9912 20.4739 19.987 20.4283C19.9523 20.0147 19.7935 19.6435 19.5929 19.2844C19.5215 19.1571 19.4847 19.0122 19.4241 18.8787C19.328 18.6666 19.2297 18.4558 19.1245 18.2481C19.0374 18.0772 18.9479 17.9062 18.843 17.745C18.705 17.533 18.5516 17.3312 18.4045 17.125C18.2218 16.8691 18.0543 16.6004 17.8516 16.3602C17.6681 16.1424 17.4541 15.9475 17.2399 15.7569C16.9841 15.529 16.7334 15.2864 16.4437 15.1064C16.2021 14.9563 15.9087 14.8849 15.6363 14.7833C15.5108 14.7364 15.3773 14.6579 15.2533 14.6676C14.6976 14.712 14.2188 14.8829 13.9113 15.4056C13.7169 15.7361 13.4305 16.0138 13.1944 16.3215C13.0663 16.4884 12.9544 16.6675 12.8395 16.8438C12.7176 17.0306 12.6004 17.2206 12.4811 17.4092L12.4177 17.4027C12.4177 17.3404 12.3957 17.2676 12.421 17.2175C12.6087 16.8496 12.5697 16.5011 12.4239 16.1205C12.3477 15.9219 12.2055 15.8108 12.0845 15.6711C11.9398 15.5042 11.3837 15.4855 11.1615 15.5605C10.953 15.6308 10.7707 15.7163 10.65 15.8954C10.5638 16.0236 10.4673 16.1595 10.4354 16.3045C10.3947 16.4885 10.4142 16.6855 10.408 16.8768C10.3993 17.1434 10.5149 17.3559 10.667 17.5725C10.7888 17.7459 10.8398 17.9669 10.9219 18.1664C10.5758 18.3252 10.4747 18.2429 10.4084 17.9119C10.303 17.386 10.1505 16.8789 9.62414 16.5658C9.21466 16.3225 8.6013 16.4042 8.30905 16.7677C8.04707 17.0934 7.97291 17.4622 8.05215 17.8431C8.10761 18.1102 8.26679 18.3601 8.52258 18.5065C8.65108 18.5803 8.80934 18.6014 8.94739 18.6609C9.06178 18.7101 9.18114 18.7667 9.26819 18.85C9.30344 18.8839 9.28729 19.0198 9.24625 19.0719C8.99097 19.394 8.50104 19.3097 8.3121 18.9343C8.25775 18.8265 8.14377 18.7402 8.04067 18.6654C7.76345 18.4638 7.43676 18.511 7.12012 18.5065C6.85743 18.5029 6.65345 18.6095 6.47274 18.7878C6.3161 18.9421 6.20293 19.1105 6.20334 19.3369C6.20334 19.3752 6.20507 19.4146 6.19796 19.4516C6.09312 19.9939 6.46441 20.2764 6.83082 20.5549C6.88344 20.5951 6.98329 20.5702 7.05877 20.5878C7.15161 20.6094 7.2407 20.646 7.33274 20.6717C7.38251 20.6856 7.43848 20.7063 7.48521 20.6961C7.65262 20.6599 7.81678 20.6103 7.98297 20.5688C8.1902 20.5167 8.39783 20.4669 8.63493 20.4091C8.66926 20.423 8.7037 20.4372 8.73773 20.451C8.73895 20.688 8.74565 20.8688 8.73397 21.047C8.72655 21.1635 8.39986 21.4106 8.26313 21.4154C7.69783 21.4352 7.25889 21.715 6.94347 22.135C6.66747 22.503 6.6567 22.9927 6.81081 23.3887C6.93016 23.6941 7.19458 24.0156 7.62479 24.0441C7.67406 24.0473 7.72139 24.0798 7.76985 24.0982C7.81871 24.1165 7.87346 24.1588 7.91582 24.1488C8.39204 24.0355 8.83718 23.8527 9.13309 23.449C9.23172 23.3142 9.25163 23.1237 9.30964 22.9597C9.35779 22.8237 9.44474 22.7207 9.54257 22.6263C9.6669 22.5816 9.76757 22.4863 9.81816 22.3666C9.95611 22.2184 10.0975 22.233 10.2533 22.279C10.313 22.2965 10.3698 22.325 10.4361 22.3597C10.4833 22.5167 10.5307 22.6736 10.5775 22.8306C10.5751 23.1326 10.5733 23.4352 10.5679 23.7372C10.5588 24.2394 10.7677 24.642 11.1552 24.9572C11.207 24.9991 11.3019 24.9901 11.3769 25.004C11.4005 25.0085 11.4246 25.0129 11.4483 25.017C12.0409 25.2202 12.7783 24.9975 13.1364 24.4915C13.1571 24.4638 13.177 24.435 13.1952 24.4048C13.3432 24.1601 13.4704 23.8625 13.3506 23.5577C13.3167 23.2699 13.1984 22.9936 12.9866 22.7835C12.9004 22.6647 12.7889 22.5682 12.6385 22.503C12.5419 22.4615 12.4068 22.3617 12.4056 22.2869C12.4039 22.1798 12.4831 22.0373 12.5735 21.9693C12.9087 21.7181 13.2648 21.4931 13.61 21.2541C13.7792 21.1368 13.9362 21.0013 14.1102 20.8918C14.2059 20.8315 14.3237 20.8039 14.4799 20.7456C14.4882 20.7464 14.4969 20.7477 14.5052 20.7484C14.5454 20.8707 14.5968 21.0065 14.6312 21.1465C14.6511 21.2267 14.6345 21.315 14.6439 21.3989C14.6937 21.8328 14.7286 22.2692 14.8043 22.6986C14.8711 23.075 14.9664 23.4496 15.0837 23.8143C15.1541 24.0342 15.2403 24.2503 15.3332 24.4632C15.4758 25.0983 15.6785 25.7214 15.9371 26.3173C15.9197 26.339 15.9018 26.3597 15.8841 26.3793C15.6706 26.6161 15.436 26.8408 15.1828 27.0358C15.0038 27.1738 14.7766 27.2499 14.5757 27.3622C14.4779 27.4172 14.3821 27.4762 14.2864 27.5352L11.6795 28.7311C11.4275 28.8272 11.1759 28.9237 10.9302 29.0339C10.657 29.1565 10.3968 29.3066 10.1294 29.4423L9.99268 29.5049C9.97074 29.5081 9.9491 29.5122 9.92716 29.5155C9.7373 29.5447 9.54958 29.6327 9.37882 29.7516C9.29054 29.7845 9.20308 29.8191 9.11815 29.8586C8.94902 29.9367 8.79075 30.0364 8.62914 30.1306C7.79738 30.5119 6.96592 30.8934 6.13406 31.2748C6.02049 31.2911 5.90946 31.3302 5.8091 31.3957C2.25827 33.7083 -0.373124 37.6898 0.0429584 42.0005C0.253133 44.1868 1.12928 46.2468 2.69427 47.7721Z" fill="#6FCF97"/>
</g>
<defs>
<clipPath id="clip0">
<rect width="56" height="55" fill="white"/>
</clipPath>
</defs>
</svg>
