<svg width="56" height="55" viewBox="0 0 56 55" fill="none" xmlns="http://www.w3.org/2000/svg">
<path d="M53.1473 48.7468C52.8846 48.588 52.6062 48.4455 52.3191 48.3362C51.7114 48.1049 51.2938 47.684 51.1414 47.082C50.9185 46.1992 50.2221 45.8096 49.4673 45.7127C48.0159 45.5268 47.11 44.5793 46.3365 43.5869C45.7596 42.8463 45.5415 41.8295 45.8992 40.8348C45.9817 40.6051 45.9884 40.42 45.8941 40.1516C45.7757 39.8158 45.9075 39.3897 45.9509 39.0046C46.376 35.2272 47.8928 31.851 49.9046 28.6579C50.0948 28.3561 50.2849 28.0547 50.4769 27.7545C50.9702 26.9825 51.1733 26.1489 51.2893 25.2336C51.5346 23.2977 51.6084 21.3346 52.2086 19.4436C52.829 17.4891 52.7841 15.4969 52.4212 13.4842C52.2338 12.4445 52.2765 11.3665 52.1668 10.3106C51.9159 7.88852 51.3397 5.54744 50.136 3.39918C49.5996 2.44201 48.9735 1.53184 48.3562 0.620715C48.1018 0.245329 47.8009 -0.151228 47.2227 0.0579206C46.9186 0.167954 46.5139 0.92822 46.5389 1.3412C46.5459 1.45816 46.6051 1.57665 46.5925 1.68934C46.5661 1.9264 46.5089 2.16004 46.4631 2.39511C46.3949 2.74714 46.3053 3.09699 46.2632 3.45177C46.2242 3.77988 46.234 4.11416 46.2253 4.44568C46.2154 4.83265 46.1867 5.22076 46.2068 5.60621C46.24 6.24609 46.2825 6.8593 45.9567 7.4763C45.7809 7.80982 45.8794 8.27388 45.8005 8.66854C45.7174 9.08493 45.5611 9.48662 45.4527 9.89837C45.2895 10.5166 45.1096 11.1328 44.9917 11.7599C44.7858 12.851 44.6549 13.9566 44.4316 15.0442C44.14 16.4646 43.7804 17.8715 43.468 19.288C43.3343 19.8942 43.2574 20.5125 43.1316 21.1205C43.0883 21.3302 42.9664 21.523 42.8955 21.7283C42.7736 22.082 42.6616 22.4387 42.5512 22.7958C42.5318 22.8586 42.5598 22.9392 42.5326 22.996C42.1749 23.739 41.8097 24.478 41.4497 25.2198C41.254 25.6226 41.0631 26.0282 40.8738 26.4338C40.8384 26.5097 40.8276 26.5969 40.7914 26.6724C40.0286 28.2496 39.2154 29.8061 38.5121 31.4085C37.736 33.1772 37.2103 35.0159 36.9792 36.9507C36.7434 38.9223 36.3498 40.8772 35.9751 42.8304C35.86 43.4303 35.5948 44.0055 35.3685 44.5804C35.2226 44.9515 34.687 45.1494 34.2698 45.0537C32.0597 44.547 29.8419 43.9993 27.5632 44.0381C26.1985 44.0613 24.8415 44.3952 23.4773 44.5618C19.3495 45.0654 15.2226 45.5744 11.091 46.0442C8.18002 46.3753 5.26307 46.437 2.35164 46.0094C2.199 45.9869 2.04405 45.9783 1.88939 45.974C1.84483 45.9729 1.7991 46.0085 1.64096 46.0749C1.86261 46.2286 1.99785 46.3859 2.16314 46.4269C2.89354 46.607 3.63031 46.7658 4.36941 46.9092C4.98816 47.0293 5.62672 47.0692 6.23368 47.2291C7.63058 47.5979 9.01887 47.4515 10.4209 47.2919C11.591 47.1587 12.7683 47.0528 13.9448 47.0223C14.3904 47.0107 14.8361 47.285 15.2933 47.3538C15.7906 47.429 16.3013 47.4277 16.8065 47.4406C17.3835 47.4553 17.9613 47.4452 18.5383 47.4518C19.1555 47.4592 19.7854 47.3987 20.3864 47.5013C21.3597 47.6679 22.315 47.9406 23.2761 48.1738C24.2348 48.4066 25.1909 48.6513 26.1508 48.8811C26.8279 49.0433 27.509 49.1916 28.1898 49.3385C28.2864 49.3594 28.4111 49.3729 28.4915 49.3315C28.8635 49.139 29.0689 49.2731 29.1533 49.6979C29.5848 49.5696 29.9741 49.4539 30.3636 49.3381C30.3937 49.3826 30.424 49.4271 30.454 49.4717C28.8027 50.5598 27.1809 51.6946 25.4918 52.7226C23.7912 53.7573 21.8496 54.2105 19.8856 54.5707C19.8947 54.6513 19.9038 54.7318 19.9129 54.8128C20.351 54.8772 20.8085 55.0537 21.223 54.9837C22.2398 54.8117 23.236 54.5243 24.2413 54.2868C24.4421 54.2396 24.6105 54.1442 24.8128 54.3964C24.922 54.5328 25.2944 54.5072 25.5424 54.4867C26.158 54.4355 26.7686 54.3224 27.3841 54.2793C27.7711 54.2523 28.1642 54.3072 28.5546 54.3232C28.7069 54.3293 28.8962 54.3886 29.0066 54.3232C29.9236 53.7766 30.9452 53.9815 31.9133 53.9688C33.4731 53.9482 35.038 54.0342 36.5956 54.1439C38.116 54.2508 39.5511 53.9854 40.9366 53.3997C42.7859 52.6177 44.6746 51.9716 46.6446 51.5289C47.7489 51.2806 48.8595 51.0102 49.8139 50.2866C50.6686 49.639 51.6892 49.6242 52.7091 49.9899C53.2163 50.172 53.7378 50.3161 54.3588 50.5105C54.1913 49.6718 53.7832 49.1303 53.1473 48.7468Z" fill="#6FCF97"/>
</svg>
