<svg width="56" height="55" viewBox="0 0 56 55" fill="none" xmlns="http://www.w3.org/2000/svg">
<g clip-path="url(#clip0)">
<path d="M54.4206 0.0619176C53.5039 0.700438 52.7156 1.4743 51.9912 2.31494C51.3215 3.09211 51.0567 4.02879 50.8685 4.99985C50.7793 5.46002 50.5894 5.59175 50.0763 5.57661C49.7319 5.56639 49.5653 5.38192 49.5007 4.97699C49.3266 3.88362 48.8055 2.99276 47.8672 2.36286C46.9427 1.74198 46.0361 1.10346 45.278 0.282477C45.1847 0.181421 45.0464 0.119664 44.9395 0.0468795C44.5051 0.445291 44.6292 0.946362 44.6188 1.37335C44.5951 2.33789 44.8491 3.25823 45.3239 4.11591C45.7075 4.80887 46.1326 5.50092 46.8752 5.82645C47.4187 6.06455 47.5336 6.38436 47.4503 6.87601C47.4262 7.01918 47.3604 7.15542 47.3292 7.29778C47.2155 7.82051 47.0739 8.34043 47.008 8.86927C46.9422 9.39741 47.1051 9.93768 46.9285 10.4694C46.8449 10.7219 46.8199 10.9935 46.7719 11.2572C46.6424 11.9693 46.3602 12.6132 45.8511 13.1412C45.1947 13.8226 44.311 14.111 43.4531 14.4407C42.2952 14.8857 41.2116 15.4507 40.2537 16.245C39.5169 16.856 38.7928 17.502 37.9785 17.9985C36.8068 18.7132 35.5587 19.3063 34.3439 19.9525C32.5835 20.8888 31.1154 22.1605 29.8639 23.6883C28.9484 24.8057 28.2776 26.0599 27.6799 27.3569C27.1405 28.5272 26.7395 29.7499 26.5442 31.0146C26.3718 32.132 26.3351 33.2619 26.4247 34.4059C26.5246 35.6841 26.4984 36.9779 26.4393 38.2611C26.3856 39.4268 26.0402 40.5464 25.5959 41.6275C24.9262 43.2563 23.9987 44.7284 22.8259 46.0594C21.5366 47.5226 20.0269 48.6989 18.2814 49.5922C16.7604 50.3707 15.087 50.5776 13.4332 50.8603C12.3408 51.0471 11.2447 51.2124 10.1526 51.4021C9.40502 51.5319 8.66292 51.693 7.91612 51.8284C6.78908 52.0329 5.66133 52.2305 4.53226 52.4239C4.04249 52.5077 3.5465 52.5601 3.05836 52.6517C2.36577 52.7813 1.64021 52.8341 1.03632 53.4088C1.28498 53.4587 1.49362 53.5372 1.70145 53.5352C2.29166 53.5295 2.88136 53.4686 3.47106 53.471C4.30116 53.4743 5.13115 53.5418 5.96083 53.5348C9.64408 53.505 13.3287 53.6379 17.0107 53.4052C17.9115 53.3484 18.8003 53.2853 19.6911 53.1148C20.7181 52.9185 21.6728 52.5553 22.5773 52.0754C24.7279 50.9346 26.4068 49.2547 27.8699 47.3715C28.861 46.0957 29.7585 44.75 30.6845 43.426C30.8581 43.1774 31.0013 43.226 31.1576 43.4002C31.2729 43.5286 31.362 43.6808 31.4549 43.8268C31.7823 44.3418 32.2458 44.784 32.3612 45.4126C32.4866 46.0978 32.6327 46.7821 32.7061 47.4734C32.7731 48.1066 32.8493 48.7626 32.7536 49.3836C32.5457 50.7339 32.253 52.071 32.3658 53.4486C32.392 53.7681 32.504 54.1097 32.8256 54.1899C33.2512 54.2963 33.7106 54.3228 34.1524 54.3056C34.9963 54.2725 35.8283 53.9809 36.6851 54.21C37.1274 54.3286 37.578 54.419 38.0162 54.5498C38.5185 54.7 39.0453 54.6967 39.5496 54.9159C39.9082 55.0717 40.3967 54.9687 40.8228 54.9319C41.0356 54.9134 41.3051 54.839 41.4321 54.6921C41.7074 54.3743 41.9789 54.1886 42.4067 54.3587C42.4391 54.3719 42.482 54.3596 42.5195 54.3608C43.1858 54.3846 43.8522 54.4104 44.519 54.4312C44.6497 54.4353 44.7809 54.4198 45.0025 54.4091C44.5589 53.5416 43.9271 52.9939 43.0884 52.7349C42.0022 52.3999 40.8973 52.1386 39.7516 52.0293C38.6483 51.9242 37.5568 51.6992 36.4594 51.5336C36.0479 51.4714 35.7051 51.0489 35.7942 50.6435C36.0049 49.6856 36.3098 48.7631 36.8775 47.9377C37.1261 47.5762 37.3447 47.1883 37.5279 46.7904C38.0615 45.632 38.5679 44.463 39.33 43.4209C39.5049 43.1816 39.6561 43.1721 39.7861 43.3791C40.1622 43.9791 40.5886 44.5677 40.8414 45.219C41.2292 46.2171 41.5404 47.2523 41.7797 48.2946C41.8939 48.7907 41.8046 49.3442 41.7414 49.8636C41.6786 50.3827 41.5073 50.8894 41.4403 51.4085C41.422 51.5501 41.5706 51.7767 41.7081 51.8593C41.9334 51.995 42.207 52.0679 42.4694 52.1264C43.1858 52.2868 43.9062 52.4283 44.6264 52.5718C44.8222 52.6107 45.0349 52.5964 45.2169 52.6651C46.5026 53.1503 47.8453 53.2524 49.2009 53.2345C49.5353 53.23 49.8939 53.1871 50.1446 52.8864C50.2004 52.8193 50.3491 52.7924 50.4499 52.8009C51.3087 52.8761 52.1661 52.9636 53.0241 53.0483C53.1286 53.0586 53.2328 53.0766 53.374 53.0962C53.3499 52.6651 53.097 52.4512 52.8139 52.2638C52.5756 52.1064 52.2733 52.0086 52.0945 51.804C51.4786 51.0977 50.6586 50.9769 49.7957 50.934C49.3555 50.9123 48.9148 50.8906 48.4754 50.8567C47.2652 50.7627 46.0562 50.6481 44.845 50.572C44.4431 50.5467 44.2237 50.3684 44.1141 50.0161C43.7518 48.8545 44.0325 47.7481 44.5335 46.7119C45.0196 45.7077 45.3752 44.6791 45.5567 43.5881C45.7542 42.4044 45.9478 41.2198 46.1252 40.0332C46.2322 39.3186 46.361 38.5999 46.3776 37.8808C46.3956 37.1204 46.3009 36.3567 46.2386 35.5959C46.1923 35.0331 46.1523 34.4665 46.0491 33.9127C45.8875 33.0467 45.6593 32.1932 45.4956 31.3276C45.4564 31.1215 45.4997 30.8499 45.6125 30.676C45.9686 30.1291 46.3634 29.6047 46.7746 29.0959C46.8487 29.0043 47.129 28.949 47.216 29.0104C48.1763 29.6893 48.609 30.3815 48.0447 31.6413C47.8932 31.9799 47.8369 32.2708 48.0564 32.564C48.2484 32.8206 48.4799 33.0483 48.6973 33.2859C48.7207 33.3113 48.7673 33.3376 48.7969 33.3322C49.2326 33.2516 49.6718 33.1829 50.0988 33.0688C50.1984 33.0421 50.2841 32.8667 50.3241 32.7436C50.5819 31.9451 50.5411 31.1794 50.0679 30.4514C49.4311 29.471 48.8077 28.4823 48.1913 27.4891C48.116 27.3676 48.0506 27.168 48.1009 27.0575C48.2583 26.7132 48.4695 26.3924 48.6673 26.0664C48.8094 25.8324 48.9038 25.8541 49.0597 26.0914C49.3769 26.5736 49.7169 27.0469 50.0963 27.4829C50.3807 27.8097 50.7448 28.0691 51.068 28.3645C51.7984 29.0311 51.8334 30.1879 51.2013 30.9295C51.0171 31.145 50.8634 31.4899 50.893 31.7545C50.9496 32.2646 51.1883 32.746 51.6214 33.0736C51.7364 33.1607 52.0021 33.1992 52.1086 33.1288C52.5527 32.8347 52.9121 32.4433 52.9087 31.8792C52.9024 30.9519 52.8663 30.0243 52.8213 29.0978C52.8066 28.7954 52.8034 28.4535 52.6606 28.204C52.3523 27.6653 51.9746 27.1614 51.5927 26.6676C51.2345 26.2042 50.8638 25.7441 50.7997 25.1505C50.7301 24.5059 50.7088 23.8551 50.6956 23.2064C50.6851 22.6988 50.666 22.1793 51.1232 21.796C51.2197 21.715 51.2699 21.5722 51.3226 21.4499C51.7404 20.4908 52.0352 19.4975 52.1215 18.4549C52.2156 17.3165 52.111 16.193 51.8171 15.0856C51.79 14.9826 51.8632 14.8541 51.8904 14.7371C51.9279 14.7285 51.9657 14.7199 52.0032 14.7117C52.4855 15.2954 53.1247 15.2586 53.772 15.1834C54.3829 15.1122 54.8711 14.443 54.7411 13.8572C54.6911 13.6323 54.6198 13.411 54.5853 13.1839C54.515 12.7234 54.4404 12.2611 54.4084 11.7969C54.3497 10.9481 54.2681 10.0953 54.3009 9.24813C54.3172 8.82526 54.3467 8.42434 54.2026 8.02312C54.1531 7.88487 54.0573 7.74452 54.0623 7.60787C54.0885 6.85566 53.6504 6.38777 53.0686 6.01753C52.7704 5.82775 52.775 5.66905 53.0077 5.43626C53.6009 4.84315 54.0735 4.18458 54.2509 3.34284C54.3867 2.69981 54.5326 2.04946 54.7745 1.44082C54.9157 1.08572 54.9815 0.75237 54.9594 0.38995C54.9391 0.0733467 54.6555 -0.101698 54.4206 0.0619176Z" fill="#6FCF97"/>
</g>
<defs>
<clipPath id="clip0">
<rect width="56" height="55" fill="white"/>
</clipPath>
</defs>
</svg>
