<svg width="56" height="55" viewBox="0 0 56 55" fill="none" xmlns="http://www.w3.org/2000/svg">
<g clip-path="url(#clip0)">
<path d="M50.6143 22.251C50.0083 20.8212 49.4753 19.3659 48.8132 17.9534C48.2397 16.73 47.2774 16.0013 46.1921 15.3787C45.572 15.0233 44.8777 14.7932 44.2166 14.5422C44.0146 14.4656 43.8854 14.23 43.9277 14.0217C44.0359 13.4892 44.1562 12.9264 44.2339 12.3582C44.2808 12.0125 44.193 11.651 44.1887 11.2964C44.1829 10.8151 44.1876 10.3336 44.2075 9.85277C44.2424 9.0197 44.0233 8.23389 43.8195 7.43591C43.6889 6.92422 43.7842 6.35289 43.6313 5.85176C43.4726 5.33081 43.6622 4.69947 43.1547 4.28411C43.1433 4.27486 43.137 4.25174 43.1386 4.23599C43.2197 3.42678 42.6118 2.86083 42.3342 2.18712C42.0524 1.50341 41.5895 0.85131 40.8087 0.524835C40.5319 0.409247 40.2787 0.239594 39.9938 0.0555033C39.8131 -0.0614993 39.6088 0.0115329 39.5379 0.212513C39.2933 0.907358 39.0464 1.53681 38.9017 2.18788C38.7588 2.83394 38.4107 3.41905 38.5176 4.15975C38.5945 4.68984 38.2597 5.27042 38.1449 5.8359C38.0841 6.13502 38.0524 6.43951 38.0198 6.74635C37.9975 6.95771 37.8607 6.9997 37.7258 6.83297C37.4024 6.43262 37.1179 6.03028 36.7286 5.79467C36.0583 5.38931 35.5601 4.78609 34.9036 4.40338C33.8781 3.80591 32.8362 3.18457 31.7199 2.80346C30.6133 2.42537 29.4116 2.28799 28.2392 2.13853C27.9306 2.09927 27.601 2.21826 27.2298 2.33186C27.0232 2.39499 26.9343 2.58785 27.0342 2.77647C27.3795 3.42829 27.6891 4.03689 28.0388 4.62238C28.6178 5.59218 29.2191 6.55037 29.8462 7.49083C30.2018 8.02404 30.6332 8.5079 31.0214 9.02073C31.4204 9.54857 31.7888 10.0999 32.2071 10.6123C32.4968 10.9668 32.855 11.2667 33.1695 11.6027C33.5159 11.9732 33.8707 12.3389 34.1807 12.7376C35.0301 13.8302 35.3601 15.1137 35.5369 16.4477C35.5435 16.4984 35.5514 16.5531 35.5749 16.5978C36.0203 17.4371 35.5523 17.9737 34.9479 18.4788C34.8627 18.55 34.8557 18.7094 34.8083 18.8265C34.7272 19.0259 34.6821 19.2542 34.5527 19.4171C34.1517 19.9202 34.0769 20.5015 34.0271 21.1071C33.9962 21.4825 33.8828 21.8501 33.8284 22.2247C33.8198 22.2848 33.8245 22.3468 33.8335 22.404C33.8488 22.5023 33.7822 22.7321 33.6924 22.9256C33.3587 23.646 33.1257 24.4378 32.4373 24.9234C32.2613 25.0473 32.2115 25.1046 32.3499 25.0885C32.4882 25.0724 32.6036 25.0715 32.6079 25.0865C32.6122 25.1015 32.4506 25.1739 32.248 25.2482C32.2175 25.2594 32.1864 25.2705 32.1555 25.282C31.9525 25.3564 31.8819 25.4414 31.9976 25.4722C32.1131 25.5031 32.0419 25.5855 31.8376 25.6567C31.6561 25.7198 31.4813 25.7806 31.3026 25.8431C31.0983 25.9138 31.011 26.0098 31.107 26.0567C31.203 26.1037 31.1305 26.1788 30.9455 26.2245C30.7604 26.2703 30.6311 26.3543 30.657 26.4113C30.6829 26.4683 30.5315 26.5475 30.3199 26.5915C29.9388 26.6704 29.5571 26.752 29.1705 26.7866C29.0455 26.7978 28.9111 26.7785 28.7786 26.7415C28.5705 26.6834 28.2401 26.5883 28.0236 26.5929C26.7583 26.6195 24.5965 27.0072 23.7217 27.173C23.5093 27.2135 23.1627 27.2654 22.9471 27.2874C22.6539 27.317 22.3411 27.3486 22.0185 27.3814C21.8033 27.4033 21.6563 27.4464 21.6908 27.4779C21.7249 27.5095 21.5862 27.5896 21.3807 27.6569C20.436 27.9671 19.4737 28.2829 18.5075 28.6001C18.3021 28.6675 18.1908 28.7521 18.2594 28.7891C18.328 28.8261 18.2209 28.9215 18.0172 28.9939C17.472 29.1872 16.9263 29.3454 16.499 29.6595C16.0365 29.9999 15.5225 30.2709 15.0663 30.6301C14.5524 31.0343 13.837 31.1909 13.2091 31.4554C13.1496 31.4805 13.09 31.5054 13.0116 31.539C12.9022 31.5852 12.9006 31.661 13.0084 31.7084C13.1162 31.7558 13.0625 31.897 12.8888 32.0241C12.5113 32.2998 12.1382 32.5727 11.7611 32.8483C11.5874 32.9754 11.4984 33.1074 11.5623 33.1436C11.6262 33.1798 11.5243 33.2918 11.3345 33.3942C11.2068 33.463 11.0809 33.5308 10.9559 33.5986C10.7662 33.701 10.6212 33.8011 10.6317 33.8223C10.6426 33.8435 10.7685 33.84 10.9136 33.8141C11.0581 33.7884 11.0488 33.8869 10.8924 34.0336C10.2025 34.6803 9.5354 35.3067 8.86587 35.9308C8.79689 35.995 8.72359 36.0547 8.63184 36.129C8.49974 36.2357 8.535 36.2845 8.70947 36.2371C8.88393 36.1902 8.92774 36.2956 8.80977 36.474C8.4762 36.976 8.15244 37.4722 7.80552 37.9523C7.58292 38.2599 7.29912 38.5251 7.04664 38.8122C7.03876 38.8216 7.04039 38.8388 7.04385 38.858C7.04818 38.8838 7.12033 38.8919 7.20535 38.8765C7.29038 38.8611 7.25589 38.9877 7.12849 39.1599C6.91723 39.4443 6.71106 39.7227 6.48682 40.0249C6.35943 40.1965 6.39584 40.2625 6.56791 40.1716C6.74007 40.0808 6.80982 40.1658 6.71769 40.3584C6.37788 41.0679 6.02347 41.6843 5.96938 42.4276C5.94276 42.7937 5.74678 43.1476 5.55588 43.5433C5.46336 43.7354 5.47393 43.8417 5.56799 43.7754C5.66204 43.7092 5.70912 43.8258 5.67222 44.0353C5.49814 45.022 5.32848 45.9855 5.16035 46.9384C5.12346 47.1479 5.15017 47.2945 5.2203 47.2657C5.29043 47.2369 5.29831 47.3788 5.23798 47.5833C5.19013 47.7445 5.14392 47.9004 5.098 48.0565C5.03766 48.2605 5.05179 48.4099 5.12893 48.3898C5.20656 48.3698 5.20531 48.5157 5.16775 48.7252C5.06975 49.2722 5.13364 49.8516 4.72562 50.3012C4.5817 50.4598 4.5108 50.5492 4.61427 50.5492C4.71774 50.5492 4.69853 50.6889 4.5719 50.8617C4.53741 50.9087 4.50331 50.9556 4.46805 51.0033C4.34143 51.1758 4.30809 51.2928 4.39321 51.2641C4.47833 51.2353 4.55432 51.2225 4.56297 51.2352C4.56893 51.2436 4.57354 51.2517 4.57392 51.2598C4.57671 51.3106 4.5794 51.3622 4.57354 51.4122C4.46459 52.3342 4.76789 53.0492 5.66204 53.4461C6.31043 53.734 6.7784 54.3816 7.62509 54.3026C7.89045 54.278 8.18443 54.5582 8.46707 54.695C8.47803 54.7003 8.49455 54.6953 8.51213 54.6884C8.53644 54.6791 8.53759 54.6291 8.51492 54.5764C8.49215 54.5235 8.64539 54.5159 8.85751 54.5598C9.0096 54.5914 9.16206 54.6229 9.31607 54.6549C9.5282 54.6987 9.67202 54.6765 9.6383 54.6052C9.60457 54.5344 9.74023 54.5417 9.94563 54.6083C11.7189 55.1831 13.5263 54.9444 15.3188 54.9775C15.5351 54.9813 15.6869 54.9559 15.6583 54.9151C15.6293 54.8739 15.7818 54.8408 15.9986 54.8412C16.6151 54.8424 17.2369 54.8447 17.8581 54.8382C18.147 54.8351 18.4374 54.8177 18.7235 54.7797C19.3601 54.6953 19.9959 54.6052 20.6285 54.4975C21.3224 54.3793 22.0232 54.6488 22.7385 54.2384C23.1571 53.9982 23.5377 53.816 23.6852 53.4993C23.7749 53.306 23.9172 53.0819 24.1281 53.0331C24.52 52.9418 24.8905 52.8587 25.2527 52.7493C25.7602 52.5962 26.1989 52.4152 26.3063 51.7566C26.3824 51.2888 26.3444 50.8595 25.9124 50.6105C25.8701 50.5863 25.8469 50.5304 25.8309 50.4719C25.8073 50.3845 25.6184 50.2975 25.4028 50.2798C25.3549 50.2759 25.3059 50.2717 25.2558 50.2675C25.0402 50.2497 24.9555 50.0877 25.0673 49.9052C25.1319 49.7997 25.1924 49.7012 25.2503 49.6061C25.362 49.424 25.4785 49.29 25.5105 49.3065C25.5426 49.3231 25.578 49.4629 25.5889 49.6188C25.5999 49.7748 25.6869 49.7474 25.7826 49.5565C25.8296 49.463 25.8747 49.3732 25.9183 49.2859C26.014 49.0953 26.115 48.9486 26.1437 48.9585C26.1723 48.9685 26.2083 49.1006 26.2237 49.2526C26.239 49.4048 26.3166 49.3682 26.3974 49.1706C26.4232 49.1071 26.4492 49.044 26.4754 48.9794C26.5557 48.7819 26.6326 48.7646 26.6471 48.9401C26.6616 49.1156 26.7153 49.0895 26.8046 48.8954C26.983 48.5085 27.2621 48.2172 27.7003 48.0342C28.306 47.7817 28.8889 47.476 29.4945 47.2224C29.5964 47.1796 29.8151 47.2412 29.8888 47.3286C30.1847 47.6782 30.4363 48.0636 30.7213 48.4232C31.0203 48.8009 31.3308 49.1704 31.6507 49.5311C32.0579 49.99 32.4798 50.4362 32.8944 50.8889C32.9179 50.9147 32.9387 50.9424 32.9603 50.9721C32.9943 51.0199 33.0532 51.0098 33.0912 50.9505C33.1291 50.8913 33.2311 51.0005 33.3193 51.195C33.3503 51.2631 33.3816 51.3324 33.4138 51.4041C33.5015 51.5985 33.5893 51.6493 33.6093 51.5176C33.6293 51.3859 33.7449 51.421 33.8672 51.5961C34.1935 52.0634 34.5094 52.5163 34.8175 52.9574C34.9397 53.133 35.0389 53.1653 35.0389 53.0301C35.0389 52.895 35.1373 52.9285 35.2585 53.1044C35.4396 53.3674 35.6116 53.6168 35.7955 53.8836C35.917 54.0596 35.9966 54.0672 35.9742 53.9006C35.9515 53.7338 35.9609 53.5792 35.9946 53.5553C36.0283 53.5311 36.1592 53.6508 36.2866 53.8225C36.3592 53.9198 36.4312 54.0172 36.5034 54.1147C36.6308 54.2864 36.7766 54.383 36.8197 54.3238C36.8644 54.2626 36.8687 54.2333 36.8707 54.2039C36.8718 54.1878 36.8573 54.1705 36.8588 54.1544C36.8593 54.1483 36.8675 54.1432 36.882 54.1335C36.8964 54.1239 37.0501 54.2163 37.2257 54.3407C37.3456 54.4253 37.4673 54.5119 37.5926 54.6005C37.7682 54.7248 37.9023 54.7479 37.892 54.6525C37.8819 54.557 38.0359 54.5454 38.2342 54.6306C38.4054 54.7041 38.5685 54.7692 38.7378 54.7954C39.1718 54.8631 39.6402 54.7815 40.0545 54.8981C40.8835 55.1311 41.5774 54.773 42.1293 54.3415C42.4754 54.0709 42.7999 53.9977 43.1766 53.9643C43.3922 53.945 43.6951 53.8199 43.8524 53.6736C44.0679 53.4726 44.289 53.2663 44.498 53.0718C44.6548 52.9256 44.7073 52.6511 44.6101 52.4609C44.3675 51.9858 44.1017 51.5723 43.5823 51.421C43.375 51.3605 43.277 51.2947 43.3765 51.2127C43.476 51.1307 43.3812 51.0641 43.1649 51.0641C43.1044 51.0641 43.0461 51.0641 42.9892 51.0641C42.7729 51.0641 42.5973 51.0534 42.5969 51.0399C42.5965 51.0264 42.6815 50.9932 42.7873 50.9656C42.8932 50.9379 42.8199 50.8427 42.6235 50.7531C42.5647 50.7265 42.5071 50.7 42.4494 50.6738C42.253 50.5845 42.1703 50.4936 42.2648 50.4716C42.3592 50.4493 42.2813 50.3492 42.0907 50.2479C41.7313 50.0563 41.3706 49.8629 41.0057 49.6766C40.9289 49.6373 40.8462 49.6092 40.7485 49.5785C40.6031 49.5327 40.5777 49.4676 40.6909 49.4349C40.8042 49.4025 40.7951 49.329 40.6713 49.271C40.5475 49.2128 40.5654 49.1473 40.712 49.125C40.8586 49.1027 40.8151 49.0187 40.6153 48.9375C40.4471 48.8694 40.2801 48.8017 40.1206 48.737C39.9207 48.6557 39.8282 48.4979 39.9207 48.3901C40.0038 48.2931 40.0646 48.2195 40.0473 48.1757C40.0011 48.0583 39.9343 47.949 39.8596 47.8369C39.7404 47.6594 39.7031 47.5197 39.7788 47.5228C39.8544 47.5258 39.8881 47.4382 39.8548 47.3268C39.8344 47.2594 39.8157 47.1921 39.8015 47.124C39.7153 46.7093 39.7192 46.2528 39.5357 45.8863C39.2849 45.3847 39.3338 44.9962 39.6157 44.6482C39.7504 44.4819 39.9218 44.4211 39.959 44.4776C39.9967 44.5342 40.0938 44.4522 40.1758 44.2945C40.258 44.1366 40.3447 44.0566 40.3694 44.1155C40.3941 44.1744 40.5275 44.09 40.667 43.9276C40.783 43.7925 40.9013 43.6546 41.0217 43.5145C41.1612 43.352 41.2988 43.2854 41.3281 43.366C41.358 43.4465 41.4442 43.3501 41.5422 43.1603C42.0326 42.2079 42.8612 41.4519 43.0529 40.3654C43.0537 40.3608 43.0631 40.3573 43.0737 40.3543C43.0867 40.3504 43.1442 40.3901 43.2019 40.4432C43.2596 40.4962 43.3556 40.3739 43.4163 40.1698C43.7549 39.0265 44.0826 37.9192 44.417 36.7906C44.4774 36.5865 44.6373 36.2867 44.7643 36.1146C45.3922 35.2673 45.5529 34.6933 45.5746 34.3549C45.5883 34.1428 45.3837 33.8687 45.2684 33.6886C45.0415 33.3336 45.0901 32.9548 45.0606 32.584C45.0206 32.0867 45.0767 31.5819 45.119 31.0873C45.137 30.8756 45.1703 30.7139 45.2162 30.7343C45.2617 30.7547 45.2601 30.6007 45.2641 30.3882C45.2801 29.477 46.1005 29.2463 46.7986 28.96C46.9986 28.878 47.3093 28.752 47.5 28.6927C47.6202 28.6554 47.734 28.6104 47.8222 28.5365C48.0711 28.3282 48.2534 28.0418 48.4579 27.7835C48.6449 27.5475 48.8703 27.3731 49.1188 27.1926C49.5433 26.8846 49.8487 26.4222 50.2274 26.048C50.5416 25.7378 50.867 25.4289 51.2284 25.1761C51.6886 24.8546 51.787 24.244 51.4625 23.7566C51.1448 23.2766 50.8374 22.778 50.6143 22.251Z" fill="#6FCF97"/>
</g>
<defs>
<clipPath id="clip0">
<rect width="56" height="55" fill="white"/>
</clipPath>
</defs>
</svg>
