<svg width="56" height="55" viewBox="0 0 56 55" fill="none" xmlns="http://www.w3.org/2000/svg">
<g clip-path="url(#clip0)">
<path d="M55.9143 41.1679C55.6393 39.8611 55.3605 38.5542 55.0559 37.2539C54.8641 36.4342 54.6763 35.6072 54.3955 34.8148C53.6831 32.8037 52.5537 31.0369 51.027 29.5161C50.7263 29.2164 50.5694 28.8502 50.7451 28.4144C50.8108 28.2522 50.865 28.0845 50.9146 27.917C51.2322 26.8395 51.1013 25.8193 50.3666 24.9504C49.6633 24.1184 48.7107 23.8438 47.643 24.0942C46.6065 24.3374 46.0066 25.0329 45.7765 26.0382C45.7098 26.3309 45.6988 26.6358 45.6622 26.9362C45.2076 26.9382 44.4824 26.7126 43.9867 26.3693C43.5962 26.0985 43.2314 25.7914 42.8558 25.4993C42.5656 25.2739 42.2945 25.0176 41.9829 24.8258C40.9984 24.2217 39.9289 23.8177 38.7968 23.5615C37.5045 23.269 36.1953 23.2018 34.88 23.2658C33.6595 23.3253 32.4503 23.4979 31.2561 23.7548C27.3686 24.5917 23.7424 25.9868 20.7297 28.6328C20.1223 29.166 19.5849 29.7885 19.0831 30.4217C18.1934 31.544 17.5432 32.8053 17.0062 34.1255C16.5785 35.1769 16.3062 36.2498 16.411 37.3928C16.4203 37.4953 16.4001 37.6045 16.3731 37.7054L16.4324 37.8112C16.1778 38.5788 15.7689 39.2378 15.0417 39.6816C14.4188 40.0617 13.7462 40.3015 13.0339 40.463C11.9958 40.6985 10.946 40.8017 9.89302 40.6606C7.60985 40.3545 5.72507 39.3385 4.28359 37.5459C3.55485 36.6396 3.04752 35.6284 2.70579 34.5341C2.42063 33.62 2.32108 32.6803 2.33592 31.7222C2.36712 29.7145 2.87637 27.8131 3.58376 25.9462C4.05002 24.7154 4.64293 23.5527 5.38066 22.4591C6.41954 20.9186 7.48493 19.3985 8.78628 18.0534C9.87589 16.9272 11.1057 15.9598 12.347 15.0047C13.4077 14.1885 14.4758 13.381 15.5225 12.5476C16.5547 11.7255 17.5694 10.8817 18.5786 10.0321C18.7696 9.87131 18.9449 9.65959 19.0465 9.43631C19.2031 9.09109 18.9938 8.8475 18.6137 8.9009C18.4305 8.92657 18.2388 8.97875 18.0798 9.06853C17.5889 9.34578 17.0921 9.62011 16.6337 9.94417C14.6892 11.3185 12.7473 12.6971 10.8258 14.1017C9.78342 14.8636 8.75124 15.6449 7.77487 16.4853C7.07466 17.088 6.43686 17.7715 5.8385 18.4742C5.0933 19.3498 4.37395 20.2532 3.72169 21.1967C2.41566 23.0863 1.35811 25.1023 0.680875 27.301C0.11257 29.146 -0.113526 31.0267 0.0544666 32.9427C0.166175 34.2131 0.380976 35.4765 0.852314 36.6733C1.17059 37.4815 1.61072 38.2268 2.202 38.8901C3.55724 40.4105 5.19008 41.5314 7.09247 42.2832C7.36154 42.3894 7.63569 42.4833 7.90755 42.5831C8.38405 42.6897 8.86046 42.7964 9.33735 42.9029C9.83837 42.9382 10.3387 42.9931 10.8402 43.0058C12.2075 43.0399 13.5185 42.7829 14.7665 42.2259C15.2972 41.9889 15.8228 41.7391 16.3602 41.5174C16.9836 41.2598 17.6213 41.0771 18.2891 41.1224L18.3836 41.2908C18.4407 41.3019 18.4957 41.3399 18.5438 41.3756C19.8091 42.3199 21.2417 42.8116 22.8218 42.9098C22.9031 42.9149 22.9955 42.9298 23.0599 42.9727C23.6552 43.3736 24.3268 43.6029 24.9979 43.8407C25.9581 44.1806 26.9506 44.2193 27.954 44.192C28.9955 44.1636 29.9215 44.4336 30.6944 45.1617C30.8733 45.3301 31.142 45.4164 31.3819 45.5092C31.5869 45.589 31.7982 45.6407 31.8806 45.8732C31.9067 45.9468 31.927 46.0224 31.9529 46.1067C32.2298 45.8658 32.2781 45.6084 32.0415 45.3557C31.6466 44.9338 31.2799 44.4762 30.7601 44.1835C30.7109 44.1558 30.6648 44.1222 30.6172 44.0914C30.6218 44.063 30.6261 44.035 30.6308 44.0067C31.0668 44.0221 31.5034 44.0317 31.9392 44.0539C32.4294 44.0793 32.8242 44.2907 33.1492 44.6519C33.3175 44.839 33.5073 45.0105 33.7054 45.1674C33.9971 45.3983 34.3224 45.4654 34.6841 45.3124C34.7579 45.2809 34.8642 45.2936 34.947 45.3162C35.2097 45.389 35.2968 45.6084 35.3473 45.8517C35.5894 45.6637 35.6633 45.4727 35.5238 45.2509C35.4192 45.0844 35.2458 44.9587 35.0974 44.8206C35.0376 44.7649 34.9494 44.7366 34.897 44.6764C34.6822 44.4302 34.4763 44.1766 34.2671 43.9253C34.4663 44.0607 34.6404 44.2238 34.8025 44.3972C34.961 44.5675 35.1146 44.7382 35.3684 44.7643C35.7808 44.8064 36.1593 44.8943 36.21 45.4083C36.4677 45.1931 36.5049 45.009 36.3788 44.7462C36.2678 44.5157 36.0773 44.388 35.8425 44.3063C35.7874 44.2871 35.7187 44.2714 35.6859 44.2307C35.4168 43.9 35.1547 43.5636 34.9024 43.2441C34.9321 43.2446 35.0086 43.2476 35.0852 43.2457C36.0034 43.2235 36.9251 43.2399 37.8389 43.1666C38.87 43.0842 39.8944 42.9189 40.9224 42.7962C40.979 42.7893 41.0723 42.8295 41.0997 42.876C41.3758 43.3408 41.7703 43.6332 42.3073 43.7639C43.111 43.9595 43.8632 44.2315 44.2846 45.0293C44.4345 45.3129 44.7165 45.3197 44.9118 45.0999C44.8387 45.0604 44.7693 45.0225 44.7071 44.9887C44.9786 44.5008 44.5958 44.1563 44.4388 43.765C44.8055 43.7332 45.2012 43.953 45.3578 44.251C45.4496 44.4259 45.5562 44.5939 45.6613 44.7616C45.7362 44.8816 45.837 44.9292 45.9694 44.8368C46.0729 44.7643 46.176 44.6918 46.2795 44.6189C46.2635 44.4939 46.2842 44.3477 46.2244 44.2477C46.0828 44.0091 45.9031 43.7919 45.7386 43.5665C45.7546 43.5503 45.7706 43.5342 45.7867 43.5185C45.969 43.6865 46.1472 43.8587 46.3354 44.0202C46.4428 44.1126 46.5639 44.1913 46.6842 44.2684C46.7498 44.3106 46.856 44.3178 46.8915 44.3731C46.9685 44.4939 47.0118 44.6355 47.0766 44.7863C47.2396 44.7383 47.3216 44.603 47.2814 44.4203C47.2427 44.2451 47.1797 44.0708 47.1021 43.9082C46.9142 43.515 46.5627 43.275 46.1952 43.0422C46.519 42.9036 46.5912 42.9404 46.7572 43.3109C47.0079 43.0992 46.8755 42.7057 46.5279 42.5657C46.2187 42.4414 45.923 42.2841 45.6215 42.141C45.6226 42.1157 45.6242 42.0907 45.6253 42.0654C46.4638 42.0156 47.302 41.9442 48.1417 41.9231C48.7681 41.9073 49.3715 42.085 49.9296 42.352C50.7361 42.7382 51.512 43.1913 52.3803 43.4367C53.1759 43.6619 53.9285 43.6071 54.565 43.0109C54.6138 42.9653 54.6662 42.9239 54.7115 42.8852C55.1261 43.0842 55.4699 43.032 55.7347 42.6834C55.867 42.5092 55.9752 42.2803 55.9927 42.0678C56.0178 41.7728 55.9765 41.4624 55.9143 41.1679Z" fill="#6FCF97"/>
</g>
<defs>
<clipPath id="clip0">
<rect width="56" height="55" fill="white"/>
</clipPath>
</defs>
</svg>
