<svg width="56" height="55" viewBox="0 0 56 55" fill="none" xmlns="http://www.w3.org/2000/svg">
<g clip-path="url(#clip0)">
<path d="M40.1738 12.3723C38.9167 12.0642 37.5788 11.8924 36.4449 11.3319C35.3855 10.8082 34.4181 9.96048 33.6437 9.06109C32.5832 7.8303 31.9165 6.31619 30.3319 5.47988C29.7786 5.18788 29.4572 4.2345 29.2987 3.5255C29.1326 2.78386 28.8698 2.49263 28.1118 2.59231C27.6547 2.65259 27.186 2.65857 26.7239 2.64824C24.4338 2.59704 23.7869 2.25018 23.0157 0.253295C22.9065 -0.0292415 22.6541 -0.0841067 22.4371 0.130331C22.2239 0.340809 22.013 0.545298 21.8099 0.75027C21.5952 0.967026 21.1779 1.21295 20.9379 1.40247C20.572 1.69177 20.3769 2.15793 20.5845 2.74242C20.5972 2.77903 20.6089 2.81525 20.6202 2.85118C20.639 2.91146 20.4649 3.11991 20.2502 3.33666C20.1506 3.43673 20.0551 3.53961 19.9637 3.64451C19.7634 3.87392 19.448 4.25256 19.2254 4.4615C18.9333 4.73534 18.6323 4.96871 18.2912 5.05574C17.2062 5.33277 17.1316 5.85583 17.3531 6.52532C17.4482 6.81268 17.321 7.11927 17.0301 7.21741C16.811 7.2915 16.6163 7.36636 16.4602 7.48816C16.2708 7.63556 16.114 7.82276 15.9627 8.01711C15.7757 8.25714 15.868 8.49399 16.1714 8.54721C16.4153 8.58972 16.6597 8.63077 16.9053 8.66303C16.973 8.67211 17.0606 8.51727 17.1316 8.52316C17.2873 8.53659 17.4426 8.55784 17.5975 8.58151C17.8539 8.62053 17.9438 8.83294 17.7973 9.05124C17.7042 9.18956 17.6039 9.31687 17.4738 9.39763C16.6922 9.88475 15.8844 10.3313 15.0622 10.7944C14.7954 10.945 14.7364 11.2582 14.927 11.4954C15.8989 12.7053 15.9377 12.9512 15.2853 14.1919C15.144 14.4603 15.268 14.7405 15.5477 14.8666C16.7447 15.4069 16.7241 16.2897 16.0552 17.2671C15.8835 17.5178 15.9441 17.8113 16.215 17.9549C17.1624 18.457 17.247 18.7281 17.2639 20.4712C17.2667 20.7735 17.5179 21.0175 17.8224 21.0608C19.0387 21.2346 19.4452 21.9369 18.7586 23.3403C18.6855 23.4893 19.0503 24.0683 19.2417 24.0831C20.8207 24.2093 20.8242 25.0267 20.2918 26.1554C20.2585 26.2256 20.2492 26.3067 20.2476 26.3848C20.2449 26.5145 20.4607 26.7506 20.7347 26.888C21.2588 27.1513 21.8037 27.3858 21.8961 27.7353C21.9354 27.8834 21.9742 28.032 22.0132 28.1809C22.0778 28.4273 21.8836 28.583 21.5809 28.5282C21.329 28.4824 21.0774 28.4368 20.8253 28.3914C19.9385 28.1519 19.0196 27.9768 17.9936 27.7637C17.6927 27.701 17.4997 27.8882 17.5663 28.1834C18.1558 30.7872 18.996 33.1814 20.8735 35.4211C21.0689 35.6544 21.2981 36.0746 21.3899 36.363C21.4128 36.4347 21.4365 36.5065 21.461 36.5782C21.5584 36.8647 21.4847 37.2506 21.2531 37.4066C21.0216 37.5626 20.9169 37.8886 20.9354 38.1901C21.004 39.3112 19.9049 40.172 19.9719 41.2944C19.9907 41.6089 20.1172 42.0484 19.9583 42.2209C18.7211 43.5632 19.7781 45.0065 19.8359 46.3484C19.8961 47.7459 20.4114 49.2123 21.0638 50.4821C23.2206 54.6809 29.362 56.3365 33.1865 53.7945C33.4414 53.6251 33.6312 53.467 33.627 53.4651C33.6235 53.4628 33.6579 53.4454 33.7022 53.4214C33.729 53.4068 33.7547 53.391 33.7788 53.3733C33.9023 53.2823 34.0263 53.1908 34.1503 53.0998C34.1973 53.0643 34.2442 53.0285 34.2912 52.9931C34.369 52.9339 34.4616 52.8571 34.4959 52.8188C34.5295 52.7805 34.7232 52.6418 34.8722 52.4543C34.9564 52.3475 35.0367 52.2261 35.119 52.0992C37.3235 48.6953 35.9272 44.1951 32.2913 43.0325C30.746 42.5383 29.2733 42.8303 28.1136 43.8472C27.0515 44.7788 26.4973 46.0395 26.8544 47.5427C27.1514 48.7932 28.0884 49.3523 29.2054 49.5908C30.4197 49.8502 31.5874 49.497 32.2711 48.4581C32.56 48.0195 32.5408 47.1899 32.3168 46.6854C32.1572 46.3256 31.4321 46.0694 30.9414 46.0371C30.7171 46.0226 30.4795 46.1999 30.2825 46.4596C30.0987 46.702 30.256 46.9569 30.5627 46.9848C30.6837 46.9958 30.8054 47.0072 30.9269 47.0184C31.2335 47.0464 31.508 47.1812 31.5404 47.3191C31.573 47.457 31.3663 47.6576 31.085 47.7798C30.7331 47.9331 30.3812 48.0797 30.0353 48.0678C29.6923 48.0564 29.0598 47.5043 29.0935 47.2682C29.1738 46.7055 29.4395 45.9353 29.8756 45.7124C30.4397 45.424 31.5168 45.2907 31.8839 45.6185C32.5654 46.2271 33.2349 47.1939 33.2985 48.0549C33.4449 50.0479 31.9577 51.276 29.7893 51.5644C26.4179 52.0129 24.1318 49.3791 24.5671 45.8621C24.8131 43.8747 25.8753 42.2908 27.2781 41.0656C27.4165 40.9445 27.5465 40.8217 27.6694 40.6972C27.8772 40.4855 28.1677 40.3205 28.3351 40.301C28.4306 40.29 28.5298 40.2687 28.6328 40.2359C28.7789 40.1895 28.9234 40.1414 29.0666 40.0917C29.3053 40.009 29.7383 39.8754 30.0388 39.8108C30.827 39.6405 31.5777 39.4979 32.1464 39.103C32.3787 38.9418 32.412 38.5044 32.4164 38.0266C32.4192 37.7244 32.5191 37.253 32.5865 36.9582C32.6648 36.6157 32.6884 36.2657 32.6884 35.9131C32.6884 35.6107 32.8209 35.1674 32.9865 34.9131C33.8023 33.6627 34.3276 32.2656 34.4383 30.677C34.5499 29.0805 34.0932 27.4454 33.891 25.828C33.8184 25.2471 33.7631 24.6627 33.6555 24.0876C33.5945 23.7621 33.456 23.4483 33.3316 23.137C33.1025 22.5635 32.887 21.9819 32.6114 21.4302C32.3802 20.9671 32.1644 20.2877 31.7775 20.1501C30.8771 19.8297 30.436 19.399 30.6366 18.4516C30.828 17.5487 30.312 17.3107 29.5379 17.3423C28.5681 17.3821 28.0922 16.9848 28.0376 15.9873C28.0315 15.8763 27.961 15.7406 27.8594 15.6133C27.7141 15.4313 27.6235 15.0883 27.5733 14.7995C27.544 14.6317 27.4834 14.4676 27.4056 14.2963C27.3795 14.2387 27.3486 14.1859 27.3144 14.1362C27.2567 14.0523 27.359 13.9371 27.548 13.8564C27.6652 13.8064 27.7784 13.7531 27.8847 13.6984C28.7916 13.2325 29.546 13.229 30.5101 13.5616C32.0984 14.1102 33.7909 14.3632 35.3944 14.8759C36.2374 15.1455 37.0327 15.5577 37.6808 15.8805C37.9552 16.0173 38.3725 15.9656 38.6133 15.7773C39.3757 15.1802 40.1269 14.6327 40.7681 13.9809C41.5113 13.2264 41.228 12.6305 40.1738 12.3723Z" fill="#6FCF97"/>
</g>
<defs>
<clipPath id="clip0">
<rect width="56" height="55" fill="white"/>
</clipPath>
</defs>
</svg>
